<?xml version="1.0" encoding="UTF-8"?>
<svg id="Layer_2" data-name="Layer 2" xmlns="http://www.w3.org/2000/svg" viewBox="0 0 94.88 11.14">
  <defs>
    <style>
      .cls-1 {
        fill: #fff;
        stroke-width: 0px;
      }
    </style>
  </defs>
  <g id="Layer_1-2" data-name="Layer 1">
    <g>
      <path class="cls-1" d="M1.92,1.35l1.78,3.89,1.78-3.89h1.92l-2.81,5.43v3.11h-1.78v-3.11L0,1.35h1.92Z"/>
      <path class="cls-1" d="M7.42,6.78v-.12c0-.46.07-.89.2-1.29s.33-.73.58-1.02.57-.51.94-.68.8-.24,1.28-.24.91.08,1.28.24.69.39.95.68.45.63.58,1.02.2.82.2,1.29v.12c0,.46-.07.89-.2,1.28s-.33.73-.58,1.03-.57.52-.94.68-.8.24-1.28.24-.91-.08-1.28-.24-.69-.39-.94-.68-.45-.63-.58-1.03-.2-.82-.2-1.28ZM9.11,6.66v.12c0,.27.02.51.07.74s.12.43.23.61.24.31.41.41.37.15.62.15.44-.05.6-.15.3-.23.4-.41.18-.38.23-.61.07-.48.07-.74v-.12c0-.26-.02-.5-.07-.73s-.12-.43-.23-.61-.24-.32-.41-.42-.37-.15-.61-.15-.44.05-.61.15-.3.24-.4.42-.18.38-.23.61-.07.47-.07.73Z"/>
      <path class="cls-1" d="M18.4,7.07h.5c0,.41-.05.8-.15,1.16s-.24.67-.44.94-.44.47-.74.62-.65.22-1.05.22c-.31,0-.59-.04-.85-.13s-.48-.23-.67-.42-.33-.43-.43-.73-.16-.66-.16-1.08V3.54h1.69v4.11c0,.19.02.35.07.47s.11.23.19.32.18.14.29.18.24.05.37.05c.35,0,.62-.07.82-.21s.34-.33.43-.58.13-.52.13-.82ZM18.22,8.37V3.54h1.69v6.34h-1.59l-.1-1.52Z"/>
      <path class="cls-1" d="M22.14.88v.85l-.17,2.34h-1.07V1.82s0-.94,0-.94h1.23Z"/>
      <path class="cls-1" d="M24.31,3.54l1.41,5.12.03,1.22h-1.07l-2.14-6.34h1.77ZM25.28,8.65l1.41-5.11h1.76l-2.14,6.34h-1.07l.04-1.23Z"/>
      <path class="cls-1" d="M32.04,10c-.49,0-.93-.08-1.32-.24s-.72-.38-.99-.66-.48-.61-.62-.98-.22-.77-.22-1.19v-.23c0-.48.07-.92.21-1.32s.33-.74.59-1.04.57-.52.93-.68.78-.24,1.24-.24.85.07,1.2.22.64.36.88.63.42.6.54.98.18.8.18,1.27v.7h-5.04v-1.12h3.38v-.13c0-.23-.04-.44-.13-.63s-.21-.33-.38-.44-.38-.16-.64-.16c-.22,0-.41.05-.57.15s-.29.23-.39.41-.17.38-.22.62-.07.5-.07.78v.23c0,.25.04.49.11.7s.18.4.31.56.3.28.49.36.41.13.66.13c.3,0,.59-.06.85-.18s.49-.3.68-.54l.82.89c-.13.19-.31.38-.54.55s-.5.32-.82.43-.69.17-1.1.17Z"/>
      <path class="cls-1" d="M39.87,1.35l1.41,7.18-.12,1.35h-1.14l-1.89-8.53h1.74ZM40.75,8.53l1.7-7.18h.95l.22,1.2-1.81,7.34h-1.02l-.04-1.35ZM43.93,1.35l1.71,7.21-.05,1.32h-1.02l-1.82-7.34.23-1.19h.94ZM45.11,8.5l1.39-7.15h1.74l-1.89,8.53h-1.14l-.11-1.38Z"/>
      <path class="cls-1" d="M48.63,6.78v-.12c0-.46.07-.89.2-1.29s.33-.73.58-1.02.57-.51.94-.68.8-.24,1.28-.24.91.08,1.28.24.69.39.95.68.45.63.58,1.02.2.82.2,1.29v.12c0,.46-.07.89-.2,1.28s-.33.73-.58,1.03-.57.52-.94.68-.8.24-1.28.24-.91-.08-1.28-.24-.69-.39-.94-.68-.45-.63-.58-1.03-.2-.82-.2-1.28ZM50.32,6.66v.12c0,.27.02.51.07.74s.12.43.23.61.24.31.41.41.37.15.62.15.44-.05.6-.15.3-.23.4-.41.18-.38.23-.61.07-.48.07-.74v-.12c0-.26-.02-.5-.07-.73s-.12-.43-.23-.61-.24-.32-.41-.42-.37-.15-.61-.15-.44.05-.61.15-.3.24-.4.42-.18.38-.23.61-.07.47-.07.73Z"/>
      <path class="cls-1" d="M57.33,4.9v4.99h-1.69V3.54h1.58l.11,1.35ZM57.08,6.49h-.46c0-.47.06-.89.18-1.27s.29-.7.51-.97.48-.47.78-.62.64-.21,1.02-.21c.3,0,.57.04.81.13s.46.22.64.41.31.44.41.74.14.69.14,1.13v4.04h-1.7v-4.05c0-.28-.04-.5-.12-.66s-.19-.27-.34-.33-.33-.1-.55-.1-.42.04-.59.13-.3.21-.41.37-.19.34-.24.55-.08.44-.08.68Z"/>
      <path class="cls-1" d="M69.37,7.65c0-.22-.04-.41-.12-.57s-.21-.29-.39-.42-.42-.24-.72-.35c-.51-.2-.95-.4-1.34-.62s-.68-.5-.9-.83-.32-.75-.32-1.26.12-.9.35-1.26.55-.63.96-.82.88-.29,1.43-.29c.41,0,.79.06,1.12.18s.62.3.87.54.43.52.56.86.19.73.19,1.17h-1.68c0-.23-.03-.44-.08-.62s-.12-.33-.22-.45-.21-.21-.34-.27-.28-.09-.44-.09c-.24,0-.43.05-.59.14s-.26.22-.33.38-.1.34-.1.54.04.37.11.52.2.28.38.41.43.25.74.38c.51.2.95.41,1.34.63s.68.5.9.83.32.75.32,1.25-.12.93-.35,1.29-.56.62-.98.81-.91.28-1.46.28c-.36,0-.72-.05-1.07-.14s-.68-.25-.97-.47-.52-.5-.69-.86-.26-.8-.26-1.32h1.69c0,.29.04.52.11.71s.17.34.3.45.26.19.42.24.31.07.47.07c.25,0,.46-.04.62-.13s.29-.21.37-.37.13-.34.13-.54ZM68.72,9.57v1.58h-.91v-1.58h.91ZM68.84,0v1.73h-.91V0h.91Z"/>
      <path class="cls-1" d="M73.79,6l-1.35-.32.49-4.32h4.79v1.37h-3.4l-.21,1.89c.11-.07.29-.14.52-.21s.49-.11.77-.11c.41,0,.78.06,1.1.19s.59.32.82.56.4.55.51.9.18.76.18,1.21c0,.38-.06.74-.18,1.08s-.29.65-.53.91-.54.48-.9.63-.79.23-1.28.23c-.37,0-.72-.05-1.06-.16s-.65-.27-.92-.49-.49-.48-.65-.78-.25-.66-.25-1.05h1.68c.02.24.09.45.19.62s.24.31.41.4.37.14.6.14c.21,0,.4-.04.55-.12s.28-.2.37-.34.16-.32.21-.52.07-.41.07-.64-.03-.44-.08-.63-.14-.35-.25-.49-.26-.24-.43-.32-.38-.11-.61-.11c-.31,0-.55.05-.72.15s-.31.21-.42.33Z"/>
      <path class="cls-1" d="M84.83,4.87v1.48c0,.64-.07,1.19-.21,1.66s-.33.84-.59,1.14-.56.51-.91.65-.74.21-1.17.21c-.34,0-.66-.04-.96-.13s-.56-.23-.8-.41-.44-.42-.61-.71-.3-.63-.39-1.03-.13-.86-.13-1.37v-1.48c0-.64.07-1.19.21-1.65s.34-.83.59-1.13.56-.51.91-.65.74-.21,1.17-.21c.34,0,.66.04.96.13s.56.22.8.41.44.42.61.71.3.63.39,1.03.13.85.13,1.36ZM83.13,6.57v-1.93c0-.31-.02-.58-.05-.81s-.08-.43-.15-.59-.15-.29-.25-.4-.21-.18-.33-.22-.26-.07-.42-.07c-.19,0-.36.04-.51.11s-.27.19-.37.35-.18.38-.23.64-.08.59-.08.98v1.93c0,.31.02.58.05.81s.08.43.15.6.15.3.25.4.21.18.33.23.27.07.42.07c.19,0,.35-.04.5-.11s.27-.2.38-.36.18-.38.23-.65.08-.6.08-.98Z"/>
      <path class="cls-1" d="M91.71,4.87v1.48c0,.64-.07,1.19-.21,1.66s-.33.84-.59,1.14-.56.51-.91.65-.74.21-1.17.21c-.34,0-.66-.04-.96-.13s-.56-.23-.8-.41-.44-.42-.61-.71-.3-.63-.39-1.03-.13-.86-.13-1.37v-1.48c0-.64.07-1.19.21-1.65s.34-.83.59-1.13.56-.51.91-.65.74-.21,1.17-.21c.34,0,.66.04.96.13s.56.22.8.41.44.42.61.71.3.63.39,1.03.13.85.13,1.36ZM90.02,6.57v-1.93c0-.31-.02-.58-.05-.81s-.08-.43-.15-.59-.15-.29-.25-.4-.21-.18-.33-.22-.26-.07-.42-.07c-.19,0-.36.04-.51.11s-.27.19-.37.35-.18.38-.23.64-.08.59-.08.98v1.93c0,.31.02.58.05.81s.08.43.15.6.15.3.25.4.21.18.33.23.27.07.42.07c.19,0,.35-.04.5-.11s.27-.2.38-.36.18-.38.23-.65.08-.6.08-.98Z"/>
      <path class="cls-1" d="M92.98,9.11c0-.25.09-.46.26-.62s.4-.25.69-.25.52.08.69.25.26.37.26.62-.09.45-.26.62-.4.25-.69.25-.51-.08-.69-.25-.26-.37-.26-.62ZM94.83,1.35l-.19,5.92h-1.41l-.2-5.92h1.8Z"/>
    </g>
  </g>
</svg>