<?xml version="1.0" encoding="UTF-8"?>
<svg id="Layer_2" data-name="Layer 2" xmlns="http://www.w3.org/2000/svg" viewBox="0 0 423.62 60.76">
  <defs>
    <style>
      .cls-1 {
        fill: #fff;
        stroke-width: 0px;
      }
    </style>
  </defs>
  <g id="Layer_1-2" data-name="Layer 1">
    <g>
      <path class="cls-1" d="M2.2.71l2.07,9.88.19,2.96h-1.48L0,.71h2.2ZM4.11,10.66L6.67.71h1.34l-.15,2.57-2.73,10.28h-1.39l.38-2.88ZM8.53.71l2.53,9.99.37,2.86h-1.39L7.35,3.27l-.14-2.57h1.32ZM10.91,10.56L12.96.71h2.21l-2.97,12.84h-1.48l.2-2.99Z"/>
      <path class="cls-1" d="M20.52,13.72c-.71,0-1.34-.12-1.91-.35-.57-.23-1.05-.56-1.45-.97-.4-.42-.7-.91-.91-1.47-.21-.56-.32-1.17-.32-1.83v-.35c0-.75.11-1.42.33-2.03.22-.61.52-1.12.91-1.56s.85-.76,1.38-.99,1.1-.34,1.72-.34c.68,0,1.28.11,1.79.34s.94.55,1.27.97c.34.41.59.91.76,1.48.17.57.25,1.2.25,1.89v.91h-7.37v-1.53h5.27v-.17c-.01-.38-.09-.74-.22-1.08-.14-.33-.35-.61-.63-.81s-.66-.31-1.13-.31c-.35,0-.67.08-.94.22-.27.15-.5.37-.68.65-.18.28-.32.62-.42,1.02-.1.4-.15.84-.15,1.34v.35c0,.42.06.8.17,1.16.11.36.28.67.51.93.22.26.49.47.81.62.32.15.68.23,1.08.23.51,0,.97-.1,1.37-.31.4-.21.75-.5,1.04-.87l1.12,1.08c-.21.3-.47.59-.8.86-.33.27-.73.5-1.2.67-.47.17-1.02.26-1.65.26Z"/>
      <path class="cls-1" d="M27.11,0v1.14l-.23,3.4h-1.38V1.28s0-1.28,0-1.28h1.61Z"/>
      <path class="cls-1" d="M31.02,5.82v7.73h-2.13V4h2.03l.1,1.82ZM33.94,3.94l-.02,1.98c-.13-.02-.27-.04-.42-.05s-.3-.02-.45-.02c-.36,0-.69.05-.96.15s-.51.25-.69.44c-.19.19-.33.42-.43.69s-.16.57-.18.91l-.49.04c0-.6.06-1.16.18-1.67.12-.51.3-.96.53-1.35.24-.39.54-.69.9-.91s.78-.33,1.26-.33c.13,0,.27.01.42.04s.26.05.34.08Z"/>
      <path class="cls-1" d="M39.31,13.72c-.71,0-1.34-.12-1.91-.35-.57-.23-1.05-.56-1.45-.97-.4-.42-.7-.91-.91-1.47-.21-.56-.32-1.17-.32-1.83v-.35c0-.75.11-1.42.33-2.03.22-.61.52-1.12.91-1.56s.85-.76,1.38-.99,1.1-.34,1.72-.34c.68,0,1.28.11,1.79.34s.94.55,1.27.97c.34.41.59.91.76,1.48.17.57.25,1.2.25,1.89v.91h-7.37v-1.53h5.27v-.17c-.01-.38-.09-.74-.22-1.08-.14-.33-.35-.61-.63-.81s-.66-.31-1.13-.31c-.35,0-.67.08-.94.22-.27.15-.5.37-.68.65-.18.28-.32.62-.42,1.02-.1.4-.15.84-.15,1.34v.35c0,.42.06.8.17,1.16.11.36.28.67.51.93.22.26.49.47.81.62.32.15.68.23,1.08.23.51,0,.97-.1,1.37-.31.4-.21.75-.5,1.04-.87l1.12,1.08c-.21.3-.47.59-.8.86-.33.27-.73.5-1.2.67-.47.17-1.02.26-1.65.26Z"/>
      <path class="cls-1" d="M53.65,4v1.55h-5.38v-1.55h5.38ZM49.82,1.67h2.13v9.24c0,.29.04.52.13.67.09.16.2.26.36.31s.33.08.54.08c.15,0,.29,0,.42-.03s.24-.04.33-.05v1.62c-.17.05-.37.1-.6.14s-.5.06-.8.06c-.49,0-.92-.09-1.3-.26-.38-.17-.67-.46-.88-.85-.21-.39-.32-.92-.32-1.57V1.67Z"/>
      <path class="cls-1" d="M57.39,0v13.55h-2.12V0h2.12ZM57.02,8.42h-.69c0-.67.1-1.28.28-1.83.18-.56.43-1.05.76-1.46.33-.42.72-.74,1.18-.96.46-.23.97-.34,1.53-.34.47,0,.9.06,1.27.19.38.13.71.34.98.62s.49.66.63,1.11c.14.46.22,1.01.22,1.66v6.13h-2.13v-6.15c0-.46-.07-.82-.2-1.09s-.32-.47-.58-.59-.56-.18-.93-.18-.72.08-1.01.23c-.29.15-.53.36-.73.63-.19.26-.34.57-.44.92-.1.35-.15.72-.15,1.11Z"/>
      <path class="cls-1" d="M67.46,5.82v7.73h-2.13V4h2.03l.1,1.82ZM70.38,3.94l-.02,1.98c-.13-.02-.27-.04-.42-.05s-.3-.02-.45-.02c-.36,0-.69.05-.96.15s-.51.25-.69.44c-.19.19-.33.42-.43.69s-.16.57-.18.91l-.49.04c0-.6.06-1.16.18-1.67.12-.51.3-.96.53-1.35.24-.39.54-.69.9-.91s.78-.33,1.26-.33c.13,0,.27.01.42.04s.26.05.34.08Z"/>
      <path class="cls-1" d="M71.71,1.5c0-.32.11-.59.32-.81.21-.21.51-.32.9-.32s.67.11.89.32c.22.21.33.48.33.81s-.11.58-.33.79c-.22.21-.51.32-.89.32s-.68-.11-.9-.32c-.21-.21-.32-.48-.32-.79ZM73.99,4v9.54h-2.13V4h2.13Z"/>
      <path class="cls-1" d="M78.59,0v13.55h-2.13V0h2.13Z"/>
      <path class="cls-1" d="M83.19,0v13.55h-2.13V0h2.13Z"/>
      <path class="cls-1" d="M89.73,13.72c-.71,0-1.34-.12-1.91-.35-.57-.23-1.05-.56-1.45-.97-.4-.42-.7-.91-.91-1.47-.21-.56-.32-1.17-.32-1.83v-.35c0-.75.11-1.42.33-2.03.22-.61.52-1.12.91-1.56s.85-.76,1.38-.99,1.1-.34,1.72-.34c.68,0,1.28.11,1.79.34s.94.55,1.27.97c.34.41.59.91.76,1.48.17.57.25,1.2.25,1.89v.91h-7.37v-1.53h5.27v-.17c-.01-.38-.09-.74-.22-1.08-.14-.33-.35-.61-.63-.81s-.66-.31-1.13-.31c-.35,0-.67.08-.94.22-.27.15-.5.37-.68.65-.18.28-.32.62-.42,1.02-.1.4-.15.84-.15,1.34v.35c0,.42.06.8.17,1.16.11.36.28.67.51.93.22.26.49.47.81.62.32.15.68.23,1.08.23.51,0,.97-.1,1.37-.31.4-.21.75-.5,1.04-.87l1.12,1.08c-.21.3-.47.59-.8.86-.33.27-.73.5-1.2.67-.47.17-1.02.26-1.65.26Z"/>
      <path class="cls-1" d="M94.81,8.88v-.19c0-.72.09-1.38.26-1.98s.42-1.11.74-1.54c.32-.43.72-.76,1.18-1,.46-.23.99-.35,1.57-.35s1.08.11,1.52.33c.44.22.81.54,1.11.96.31.41.55.91.73,1.48s.31,1.21.39,1.91v.59c-.08.68-.21,1.31-.39,1.87s-.43,1.05-.73,1.46c-.31.41-.68.73-1.12.95-.44.22-.95.34-1.53.34s-1.1-.12-1.56-.36c-.46-.24-.85-.58-1.18-1.01-.32-.44-.57-.95-.74-1.54-.17-.59-.26-1.23-.26-1.93ZM96.94,8.7v.19c0,.44.04.84.12,1.22.08.38.2.71.38.99s.39.51.67.67.6.24.98.24c.48,0,.88-.11,1.19-.32.31-.21.56-.5.74-.86.18-.36.3-.77.37-1.21v-1.6c-.04-.35-.11-.67-.22-.97s-.25-.56-.44-.79-.41-.4-.67-.53c-.27-.13-.58-.19-.95-.19-.39,0-.72.08-.99.25-.27.16-.49.39-.67.68s-.3.62-.38,1.01c-.08.38-.12.79-.12,1.23ZM101.02,11.57V0h2.13v13.55h-1.93l-.2-1.98Z"/>
      <path class="cls-1" d="M114.24,4v1.55h-5.38v-1.55h5.38ZM110.41,1.67h2.13v9.24c0,.29.04.52.13.67.09.16.2.26.36.31s.33.08.54.08c.15,0,.29,0,.42-.03s.24-.04.33-.05v1.62c-.17.05-.37.1-.6.14s-.5.06-.8.06c-.49,0-.92-.09-1.3-.26-.38-.17-.67-.46-.88-.85-.21-.39-.32-.92-.32-1.57V1.67Z"/>
      <path class="cls-1" d="M115.27,8.88v-.2c0-.69.1-1.33.3-1.92s.49-1.11.87-1.54c.38-.44.84-.78,1.39-1.02.55-.24,1.17-.37,1.87-.37s1.32.12,1.87.37c.55.24,1.02.59,1.4,1.02.38.44.67.95.87,1.54.2.59.3,1.23.3,1.92v.2c0,.69-.1,1.33-.3,1.91-.2.59-.49,1.1-.87,1.54-.38.44-.85.78-1.39,1.02s-1.17.37-1.86.37-1.32-.12-1.87-.37-1.02-.58-1.4-1.02c-.38-.44-.67-.95-.87-1.54s-.3-1.23-.3-1.91ZM117.39,8.68v.2c0,.43.04.83.13,1.22.09.38.23.72.41,1.01.19.29.43.51.72.68.29.16.64.25,1.05.25s.74-.08,1.03-.25c.29-.17.53-.39.72-.68s.33-.62.42-1.01c.09-.38.14-.79.14-1.22v-.2c0-.42-.05-.82-.14-1.2-.09-.38-.23-.72-.42-1.01s-.43-.52-.72-.69c-.29-.17-.64-.25-1.04-.25s-.75.08-1.04.25c-.29.17-.53.4-.72.69-.19.29-.33.63-.41,1.01-.09.38-.13.78-.13,1.2Z"/>
      <path class="cls-1" d="M136.1,7.74l.02,1.31h-1.53c-.39,0-.74.04-1.04.11-.3.07-.55.18-.75.32-.2.14-.35.31-.45.51s-.15.43-.15.68.06.48.18.69c.12.21.29.37.52.49.23.12.5.18.82.18.44,0,.82-.09,1.14-.27.33-.18.58-.4.77-.66.19-.26.29-.51.3-.75l.69.94c-.07.24-.19.5-.36.78-.17.28-.39.54-.67.79s-.6.45-.98.61c-.38.16-.82.24-1.31.24-.62,0-1.18-.12-1.67-.38-.49-.25-.87-.59-1.15-1.01-.28-.43-.41-.91-.41-1.45,0-.5.1-.95.29-1.34.19-.39.47-.72.85-.98.37-.26.83-.47,1.37-.6.54-.14,1.16-.21,1.85-.21h1.67ZM135.79,11.63v-4.55c0-.34-.06-.63-.19-.88s-.31-.44-.56-.57c-.25-.13-.56-.2-.94-.2-.35,0-.65.06-.9.18-.25.12-.45.28-.59.48s-.21.43-.21.68h-2.12c0-.38.09-.74.27-1.09.18-.35.45-.67.79-.94.35-.28.76-.49,1.24-.65.48-.16,1.02-.24,1.62-.24.72,0,1.35.12,1.91.36s.99.6,1.31,1.09c.32.49.48,1.09.48,1.82v4.24c0,.44.03.82.09,1.17.06.34.15.64.27.89v.14h-2.18c-.1-.23-.18-.52-.23-.88-.06-.36-.08-.7-.08-1.04Z"/>
      <path class="cls-1" d="M142.26,6.04v7.51h-2.13V4h2l.12,2.04ZM141.88,8.42h-.69c0-.68.1-1.3.29-1.87.19-.57.44-1.05.78-1.46.33-.41.73-.72,1.2-.94s.98-.33,1.55-.33c.46,0,.87.06,1.25.19.37.13.69.33.96.61.27.28.47.65.61,1.1s.21,1,.21,1.65v6.17h-2.13v-6.17c0-.46-.07-.82-.2-1.09s-.32-.46-.57-.57-.56-.17-.93-.17-.69.08-.98.23c-.29.15-.53.36-.73.63-.2.26-.35.57-.45.92-.11.35-.16.72-.16,1.11Z"/>
      <path class="cls-1" d="M152.31,6.04v7.51h-2.13V4h2l.12,2.04ZM151.93,8.42h-.69c0-.68.1-1.3.29-1.87.19-.57.44-1.05.78-1.46.33-.41.73-.72,1.2-.94s.98-.33,1.55-.33c.46,0,.87.06,1.25.19.37.13.69.33.96.61.27.28.47.65.61,1.1s.21,1,.21,1.65v6.17h-2.13v-6.17c0-.46-.07-.82-.2-1.09s-.32-.46-.57-.57-.56-.17-.93-.17-.69.08-.98.23c-.29.15-.53.36-.73.63-.2.26-.35.57-.45.92-.11.35-.16.72-.16,1.11Z"/>
      <path class="cls-1" d="M159.85,8.88v-.2c0-.69.1-1.33.3-1.92s.49-1.11.87-1.54c.38-.44.84-.78,1.39-1.02.55-.24,1.17-.37,1.87-.37s1.32.12,1.87.37c.55.24,1.02.59,1.4,1.02.38.44.67.95.87,1.54.2.59.3,1.23.3,1.92v.2c0,.69-.1,1.33-.3,1.91-.2.59-.49,1.1-.87,1.54-.38.44-.85.78-1.39,1.02s-1.17.37-1.86.37-1.32-.12-1.87-.37-1.02-.58-1.4-1.02c-.38-.44-.67-.95-.87-1.54s-.3-1.23-.3-1.91ZM161.98,8.68v.2c0,.43.04.83.13,1.22.09.38.23.72.41,1.01.19.29.43.51.72.68.29.16.64.25,1.05.25s.74-.08,1.03-.25c.29-.17.53-.39.72-.68s.33-.62.42-1.01c.09-.38.14-.79.14-1.22v-.2c0-.42-.05-.82-.14-1.2-.09-.38-.23-.72-.42-1.01s-.43-.52-.72-.69c-.29-.17-.64-.25-1.04-.25s-.75.08-1.04.25c-.29.17-.53.4-.72.69-.19.29-.33.63-.41,1.01-.09.38-.13.78-.13,1.2Z"/>
      <path class="cls-1" d="M176.55,9.31l.71-.02c0,.64-.07,1.23-.21,1.77s-.36,1.01-.65,1.4c-.29.4-.67.71-1.13.93-.46.22-1.01.33-1.65.33-.46,0-.89-.07-1.28-.2-.39-.14-.72-.34-1-.63s-.5-.65-.65-1.1c-.15-.45-.23-.99-.23-1.62v-6.17h2.13v6.18c0,.35.04.64.12.87.08.23.19.42.33.56.14.14.31.24.49.3s.39.09.6.09c.61,0,1.08-.12,1.43-.36.35-.24.6-.56.75-.97.15-.41.23-.86.23-1.37ZM176.25,11.3v-7.29h2.13v9.54h-2.01l-.12-2.25Z"/>
      <path class="cls-1" d="M182.66,6.04v7.51h-2.13V4h2l.12,2.04ZM182.28,8.42h-.69c0-.68.1-1.3.29-1.87.19-.57.44-1.05.78-1.46.33-.41.73-.72,1.2-.94s.98-.33,1.55-.33c.46,0,.87.06,1.25.19.37.13.69.33.96.61.27.28.47.65.61,1.1s.21,1,.21,1.65v6.17h-2.13v-6.17c0-.46-.07-.82-.2-1.09s-.32-.46-.57-.57-.56-.17-.93-.17-.69.08-.98.23c-.29.15-.53.36-.73.63-.2.26-.35.57-.45.92-.11.35-.16.72-.16,1.11Z"/>
      <path class="cls-1" d="M194.51,12.03c.35,0,.66-.07.94-.21.28-.14.51-.33.68-.58s.27-.53.29-.86h2c-.01.62-.19,1.18-.55,1.69-.35.51-.82.91-1.4,1.2-.58.3-1.23.45-1.93.45s-1.36-.12-1.91-.38-.99-.6-1.35-1.04c-.36-.44-.63-.95-.81-1.53-.18-.58-.27-1.19-.27-1.85v-.31c0-.66.09-1.28.27-1.86.18-.58.45-1.09.81-1.53.36-.44.81-.79,1.35-1.04.54-.25,1.17-.37,1.9-.37.76,0,1.43.15,2.01.45s1.03.72,1.36,1.26.5,1.16.52,1.88h-2c-.02-.35-.1-.67-.26-.96s-.37-.51-.65-.68c-.28-.17-.61-.26-1-.26-.43,0-.78.09-1.07.26-.28.17-.5.41-.66.71s-.27.63-.34,1c-.07.37-.1.75-.1,1.14v.31c0,.39.03.78.1,1.15.06.37.18.7.34.99.16.29.38.52.67.7.28.17.64.26,1.08.26Z"/>
      <path class="cls-1" d="M204.25,13.72c-.71,0-1.34-.12-1.91-.35-.57-.23-1.05-.56-1.45-.97-.4-.42-.7-.91-.91-1.47-.21-.56-.32-1.17-.32-1.83v-.35c0-.75.11-1.42.33-2.03.22-.61.52-1.12.91-1.56s.85-.76,1.38-.99,1.1-.34,1.72-.34c.68,0,1.28.11,1.79.34s.94.55,1.27.97c.34.41.59.91.76,1.48.17.57.25,1.2.25,1.89v.91h-7.37v-1.53h5.27v-.17c-.01-.38-.09-.74-.22-1.08-.14-.33-.35-.61-.63-.81s-.66-.31-1.13-.31c-.35,0-.67.08-.94.22-.27.15-.5.37-.68.65-.18.28-.32.62-.42,1.02-.1.4-.15.84-.15,1.34v.35c0,.42.06.8.17,1.16.11.36.28.67.51.93.22.26.49.47.81.62.32.15.68.23,1.08.23.51,0,.97-.1,1.37-.31.4-.21.75-.5,1.04-.87l1.12,1.08c-.21.3-.47.59-.8.86-.33.27-.73.5-1.2.67-.47.17-1.02.26-1.65.26Z"/>
      <path class="cls-1" d="M218.58,4v1.55h-5.38v-1.55h5.38ZM214.75,1.67h2.13v9.24c0,.29.04.52.13.67.09.16.2.26.36.31s.33.08.54.08c.15,0,.29,0,.42-.03s.24-.04.33-.05v1.62c-.17.05-.37.1-.6.14s-.5.06-.8.06c-.49,0-.92-.09-1.3-.26-.38-.17-.67-.46-.88-.85-.21-.39-.32-.92-.32-1.57V1.67Z"/>
      <path class="cls-1" d="M222.32,0v13.55h-2.12V0h2.12ZM221.95,8.42h-.69c0-.67.1-1.28.28-1.83.18-.56.43-1.05.76-1.46.33-.42.72-.74,1.18-.96.46-.23.97-.34,1.53-.34.47,0,.9.06,1.27.19.38.13.71.34.98.62s.49.66.63,1.11c.14.46.22,1.01.22,1.66v6.13h-2.13v-6.15c0-.46-.07-.82-.2-1.09s-.32-.47-.58-.59-.56-.18-.93-.18-.72.08-1.01.23c-.29.15-.53.36-.73.63-.19.26-.34.57-.44.92-.1.35-.15.72-.15,1.11Z"/>
      <path class="cls-1" d="M235.95,7.74l.02,1.31h-1.53c-.39,0-.74.04-1.04.11-.3.07-.55.18-.75.32-.2.14-.35.31-.45.51s-.15.43-.15.68.06.48.18.69c.12.21.29.37.52.49.23.12.5.18.82.18.44,0,.82-.09,1.14-.27.33-.18.58-.4.77-.66.19-.26.29-.51.3-.75l.69.94c-.07.24-.19.5-.36.78-.17.28-.39.54-.67.79s-.6.45-.98.61c-.38.16-.82.24-1.31.24-.62,0-1.18-.12-1.67-.38-.49-.25-.87-.59-1.15-1.01-.28-.43-.41-.91-.41-1.45,0-.5.1-.95.29-1.34.19-.39.47-.72.85-.98.37-.26.83-.47,1.37-.6.54-.14,1.16-.21,1.85-.21h1.67ZM235.64,11.63v-4.55c0-.34-.06-.63-.19-.88s-.31-.44-.56-.57c-.25-.13-.56-.2-.94-.2-.35,0-.65.06-.9.18-.25.12-.45.28-.59.48s-.21.43-.21.68h-2.12c0-.38.09-.74.27-1.09.18-.35.45-.67.79-.94.35-.28.76-.49,1.24-.65.48-.16,1.02-.24,1.62-.24.72,0,1.35.12,1.91.36s.99.6,1.31,1.09c.32.49.48,1.09.48,1.82v4.24c0,.44.03.82.09,1.17.06.34.15.64.27.89v.14h-2.18c-.1-.23-.18-.52-.23-.88-.06-.36-.08-.7-.08-1.04Z"/>
      <path class="cls-1" d="M244.37,4v1.55h-5.38v-1.55h5.38ZM240.54,1.67h2.13v9.24c0,.29.04.52.13.67.09.16.2.26.36.31s.33.08.54.08c.15,0,.29,0,.42-.03s.24-.04.33-.05v1.62c-.17.05-.37.1-.6.14s-.5.06-.8.06c-.49,0-.92-.09-1.3-.26-.38-.17-.67-.46-.88-.85-.21-.39-.32-.92-.32-1.57V1.67Z"/>
      <path class="cls-1" d="M251.81,4l2.27,7.14.38,2.24-1.47.38-3.47-9.76h2.29ZM253.27,12.51l2.59-8.5h2.28l-3.83,11c-.09.24-.2.49-.34.77s-.32.54-.55.79-.51.45-.84.61c-.33.16-.74.23-1.22.23-.19,0-.37-.02-.54-.05s-.34-.07-.49-.1v-1.62s.12.01.21.02.15,0,.21,0c.35,0,.65-.04.88-.13.24-.09.43-.22.58-.41.15-.19.28-.44.38-.76l.69-1.85Z"/>
      <path class="cls-1" d="M258.81,8.88v-.2c0-.69.1-1.33.3-1.92s.49-1.11.87-1.54c.38-.44.84-.78,1.39-1.02.55-.24,1.17-.37,1.87-.37s1.32.12,1.87.37c.55.24,1.02.59,1.4,1.02.38.44.67.95.87,1.54.2.59.3,1.23.3,1.92v.2c0,.69-.1,1.33-.3,1.91-.2.59-.49,1.1-.87,1.54-.38.44-.85.78-1.39,1.02s-1.17.37-1.86.37-1.32-.12-1.87-.37-1.02-.58-1.4-1.02c-.38-.44-.67-.95-.87-1.54s-.3-1.23-.3-1.91ZM260.94,8.68v.2c0,.43.04.83.13,1.22.09.38.23.72.41,1.01.19.29.43.51.72.68.29.16.64.25,1.05.25s.74-.08,1.03-.25c.29-.17.53-.39.72-.68s.33-.62.42-1.01c.09-.38.14-.79.14-1.22v-.2c0-.42-.05-.82-.14-1.2-.09-.38-.23-.72-.42-1.01s-.43-.52-.72-.69c-.29-.17-.64-.25-1.04-.25s-.75.08-1.04.25c-.29.17-.53.4-.72.69-.19.29-.33.63-.41,1.01-.09.38-.13.78-.13,1.2Z"/>
      <path class="cls-1" d="M275.51,9.31l.71-.02c0,.64-.07,1.23-.21,1.77s-.36,1.01-.65,1.4c-.29.4-.67.71-1.13.93-.46.22-1.01.33-1.65.33-.46,0-.89-.07-1.28-.2-.39-.14-.72-.34-1-.63s-.5-.65-.65-1.1c-.15-.45-.23-.99-.23-1.62v-6.17h2.13v6.18c0,.35.04.64.12.87.08.23.19.42.33.56.14.14.31.24.49.3s.39.09.6.09c.61,0,1.08-.12,1.43-.36.35-.24.6-.56.75-.97.15-.41.23-.86.23-1.37ZM275.21,11.3v-7.29h2.13v9.54h-2.01l-.12-2.25Z"/>
      <path class="cls-1" d="M280.75,0v1.14l-.23,3.4h-1.38V1.28s0-1.28,0-1.28h1.61Z"/>
      <path class="cls-1" d="M284.67,5.82v7.73h-2.13V4h2.03l.1,1.82ZM287.59,3.94l-.02,1.98c-.13-.02-.27-.04-.42-.05s-.3-.02-.45-.02c-.36,0-.69.05-.96.15s-.51.25-.69.44c-.19.19-.33.42-.43.69s-.16.57-.18.91l-.49.04c0-.6.06-1.16.18-1.67.12-.51.3-.96.53-1.35.24-.39.54-.69.9-.91s.78-.33,1.26-.33c.13,0,.27.01.42.04s.26.05.34.08Z"/>
      <path class="cls-1" d="M292.96,13.72c-.71,0-1.34-.12-1.91-.35-.57-.23-1.05-.56-1.45-.97-.4-.42-.7-.91-.91-1.47-.21-.56-.32-1.17-.32-1.83v-.35c0-.75.11-1.42.33-2.03.22-.61.52-1.12.91-1.56s.85-.76,1.38-.99,1.1-.34,1.72-.34c.68,0,1.28.11,1.79.34s.94.55,1.27.97c.34.41.59.91.76,1.48.17.57.25,1.2.25,1.89v.91h-7.37v-1.53h5.27v-.17c-.01-.38-.09-.74-.22-1.08-.14-.33-.35-.61-.63-.81s-.66-.31-1.13-.31c-.35,0-.67.08-.94.22-.27.15-.5.37-.68.65-.18.28-.32.62-.42,1.02-.1.4-.15.84-.15,1.34v.35c0,.42.06.8.17,1.16.11.36.28.67.51.93.22.26.49.47.81.62.32.15.68.23,1.08.23.51,0,.97-.1,1.37-.31.4-.21.75-.5,1.04-.87l1.12,1.08c-.21.3-.47.59-.8.86-.33.27-.73.5-1.2.67-.47.17-1.02.26-1.65.26Z"/>
      <path class="cls-1" d="M302.51,8.88v-.2c0-.69.1-1.33.3-1.92s.49-1.11.87-1.54c.38-.44.84-.78,1.39-1.02.55-.24,1.17-.37,1.87-.37s1.32.12,1.87.37c.55.24,1.02.59,1.4,1.02.38.44.67.95.87,1.54.2.59.3,1.23.3,1.92v.2c0,.69-.1,1.33-.3,1.91-.2.59-.49,1.1-.87,1.54-.38.44-.85.78-1.39,1.02s-1.17.37-1.86.37-1.32-.12-1.87-.37-1.02-.58-1.4-1.02c-.38-.44-.67-.95-.87-1.54s-.3-1.23-.3-1.91ZM304.64,8.68v.2c0,.43.04.83.13,1.22.09.38.23.72.41,1.01.19.29.43.51.72.68.29.16.64.25,1.05.25s.74-.08,1.03-.25c.29-.17.53-.39.72-.68s.33-.62.42-1.01c.09-.38.14-.79.14-1.22v-.2c0-.42-.05-.82-.14-1.2-.09-.38-.23-.72-.42-1.01s-.43-.52-.72-.69c-.29-.17-.64-.25-1.04-.25s-.75.08-1.04.25c-.29.17-.53.4-.72.69-.19.29-.33.63-.41,1.01-.09.38-.13.78-.13,1.2Z"/>
      <path class="cls-1" d="M319.21,9.31l.71-.02c0,.64-.07,1.23-.21,1.77s-.36,1.01-.65,1.4c-.29.4-.67.71-1.13.93-.46.22-1.01.33-1.65.33-.46,0-.89-.07-1.28-.2-.39-.14-.72-.34-1-.63s-.5-.65-.65-1.1c-.15-.45-.23-.99-.23-1.62v-6.17h2.13v6.18c0,.35.04.64.12.87.08.23.19.42.33.56.14.14.31.24.49.3s.39.09.6.09c.61,0,1.08-.12,1.43-.36.35-.24.6-.56.75-.97.15-.41.23-.86.23-1.37ZM318.91,11.3v-7.29h2.13v9.54h-2.01l-.12-2.25Z"/>
      <path class="cls-1" d="M325.35,5.82v7.73h-2.13V4h2.03l.1,1.82ZM328.27,3.94l-.02,1.98c-.13-.02-.27-.04-.42-.05s-.3-.02-.45-.02c-.36,0-.69.05-.96.15s-.51.25-.69.44c-.19.19-.33.42-.43.69s-.16.57-.18.91l-.49.04c0-.6.06-1.16.18-1.67.12-.51.3-.96.53-1.35.24-.39.54-.69.9-.91s.78-.33,1.26-.33c.13,0,.27.01.42.04s.26.05.34.08Z"/>
      <path class="cls-1" d="M336.37,0v13.55h-2.13V0h2.13Z"/>
      <path class="cls-1" d="M344.74,9.31l.71-.02c0,.64-.07,1.23-.21,1.77s-.36,1.01-.65,1.4c-.29.4-.67.71-1.13.93-.46.22-1.01.33-1.65.33-.46,0-.89-.07-1.28-.2-.39-.14-.72-.34-1-.63s-.5-.65-.65-1.1c-.15-.45-.23-.99-.23-1.62v-6.17h2.13v6.18c0,.35.04.64.12.87.08.23.19.42.33.56.14.14.31.24.49.3s.39.09.6.09c.61,0,1.08-.12,1.43-.36.35-.24.6-.56.75-.97.15-.41.23-.86.23-1.37ZM344.44,11.3v-7.29h2.13v9.54h-2.01l-.12-2.25Z"/>
      <path class="cls-1" d="M352.64,12.03c.35,0,.66-.07.94-.21.28-.14.51-.33.68-.58.17-.25.27-.53.29-.86h2c-.01.62-.19,1.18-.55,1.69-.35.51-.82.91-1.4,1.2s-1.23.45-1.93.45-1.36-.12-1.91-.38-.99-.6-1.35-1.04c-.36-.44-.63-.95-.81-1.53-.18-.58-.27-1.19-.27-1.85v-.31c0-.66.09-1.28.27-1.86.18-.58.45-1.09.81-1.53.36-.44.81-.79,1.35-1.04.54-.25,1.17-.37,1.9-.37.76,0,1.43.15,2.01.45.58.3,1.03.72,1.36,1.26s.5,1.16.52,1.88h-2c-.02-.35-.1-.67-.26-.96-.16-.29-.37-.51-.65-.68-.28-.17-.61-.26-1-.26-.43,0-.79.09-1.07.26-.28.17-.5.41-.66.71-.16.3-.27.63-.34,1-.07.37-.1.75-.1,1.14v.31c0,.39.03.78.1,1.15.06.37.18.7.34.99.16.29.38.52.67.7s.64.26,1.08.26Z"/>
      <path class="cls-1" d="M360.31,0v13.55h-2.13V0h2.13ZM366.24,4l-4.15,4.6-2.28,2.33-.56-1.8,1.72-2.13,2.7-3.01h2.57ZM364.13,13.55l-3.1-4.48,1.34-1.49,4.22,5.97h-2.46Z"/>
      <path class="cls-1" d="M368.9,4l2.27,7.14.38,2.24-1.47.38-3.47-9.76h2.29ZM370.36,12.51l2.59-8.5h2.28l-3.83,11c-.09.24-.2.49-.34.77-.14.28-.33.54-.55.79s-.51.45-.84.61c-.34.16-.74.23-1.22.23-.19,0-.37-.02-.54-.05-.17-.03-.34-.07-.49-.1v-1.62s.12.01.21.02c.08,0,.15,0,.21,0,.35,0,.65-.04.88-.13.24-.09.43-.22.58-.41.15-.19.28-.44.38-.76l.69-1.85Z"/>
      <path class="cls-1" d="M6.03,32.64c0-.21-.05-.4-.16-.58s-.31-.33-.6-.47c-.3-.14-.73-.27-1.31-.39-.51-.11-.97-.25-1.39-.4-.42-.16-.78-.34-1.08-.57s-.53-.49-.7-.79-.25-.66-.25-1.06.08-.76.26-1.1c.17-.35.41-.65.73-.92.32-.26.7-.47,1.16-.63.46-.15.97-.23,1.53-.23.8,0,1.49.13,2.06.4s1.01.63,1.32,1.08c.31.46.46.97.46,1.54h-2.13c0-.25-.06-.49-.19-.71-.13-.22-.32-.4-.57-.54-.25-.14-.57-.21-.95-.21s-.67.06-.9.17c-.24.12-.41.26-.53.45-.11.18-.17.38-.17.6,0,.16.03.3.09.43.06.13.17.24.31.34s.35.2.6.29c.26.09.58.17.97.26.73.15,1.36.35,1.88.59s.93.54,1.21.92c.28.37.42.84.42,1.42,0,.42-.09.81-.27,1.16s-.44.65-.78.91c-.34.26-.75.45-1.22.6-.47.14-1,.21-1.59.21-.86,0-1.6-.15-2.2-.46-.6-.31-1.05-.71-1.36-1.19s-.46-.99-.46-1.51h2.06c.02.39.13.71.33.94.2.23.44.4.74.5s.6.15.92.15c.38,0,.7-.05.96-.15s.46-.24.59-.42c.14-.18.2-.38.2-.61Z"/>
      <path class="cls-1" d="M11.27,25.68l1.72,7.46.14,2.08h-1.36l-2.58-9.54h2.08ZM12.57,33.11l2.21-7.43h1.36l-.37,2.22-2.22,7.32h-1.22l.25-2.12ZM16.36,25.68l2.18,7.34.27,2.21h-1.22l-2.25-7.33-.37-2.21h1.38ZM18.2,33.05l1.67-7.37h2.07l-2.58,9.54h-1.36l.19-2.17Z"/>
      <path class="cls-1" d="M27.59,35.4c-.71,0-1.34-.12-1.91-.35-.57-.23-1.05-.56-1.45-.97-.4-.42-.7-.91-.91-1.47-.21-.56-.32-1.17-.32-1.83v-.35c0-.75.11-1.42.33-2.03.22-.61.52-1.12.91-1.56s.85-.76,1.38-.99,1.1-.34,1.72-.34c.68,0,1.28.11,1.79.34s.94.55,1.27.97c.34.41.59.91.76,1.48.17.57.25,1.2.25,1.89v.91h-7.37v-1.53h5.27v-.17c-.01-.38-.09-.74-.22-1.08-.14-.33-.35-.61-.63-.81s-.66-.31-1.13-.31c-.35,0-.67.08-.94.22-.27.15-.5.37-.68.65-.18.28-.32.62-.42,1.02-.1.4-.15.84-.15,1.34v.35c0,.42.06.8.17,1.16.11.36.28.67.51.93.22.26.49.47.81.62.32.15.68.23,1.08.23.51,0,.97-.1,1.37-.31.4-.21.75-.5,1.04-.87l1.12,1.08c-.21.3-.47.59-.8.86-.33.27-.73.5-1.2.67-.47.17-1.02.26-1.65.26Z"/>
      <path class="cls-1" d="M37.27,35.4c-.71,0-1.34-.12-1.91-.35-.57-.23-1.05-.56-1.45-.97-.4-.42-.7-.91-.91-1.47-.21-.56-.32-1.17-.32-1.83v-.35c0-.75.11-1.42.33-2.03.22-.61.52-1.12.91-1.56s.85-.76,1.38-.99,1.1-.34,1.72-.34c.68,0,1.28.11,1.79.34s.94.55,1.27.97c.34.41.59.91.76,1.48.17.57.25,1.2.25,1.89v.91h-7.37v-1.53h5.27v-.17c-.01-.38-.09-.74-.22-1.08-.14-.33-.35-.61-.63-.81s-.66-.31-1.13-.31c-.35,0-.67.08-.94.22-.27.15-.5.37-.68.65-.18.28-.32.62-.42,1.02-.1.4-.15.84-.15,1.34v.35c0,.42.06.8.17,1.16.11.36.28.67.51.93.22.26.49.47.81.62.32.15.68.23,1.08.23.51,0,.97-.1,1.37-.31.4-.21.75-.5,1.04-.87l1.12,1.08c-.21.3-.47.59-.8.86-.33.27-.73.5-1.2.67-.47.17-1.02.26-1.65.26Z"/>
      <path class="cls-1" d="M44.87,27.52v11.38h-2.13v-13.21h1.96l.17,1.83ZM51.09,30.36v.19c0,.69-.08,1.34-.24,1.93-.16.59-.4,1.11-.71,1.54-.31.44-.7.78-1.16,1.02-.46.24-.99.36-1.59.36s-1.11-.11-1.56-.33c-.44-.22-.82-.53-1.12-.94s-.55-.88-.74-1.43-.32-1.15-.39-1.81v-.71c.08-.7.21-1.33.39-1.91s.43-1.06.74-1.47c.31-.41.68-.73,1.12-.95.44-.22.96-.33,1.54-.33s1.13.12,1.6.35c.46.23.86.56,1.17.99s.56.94.71,1.54c.16.6.24,1.26.24,1.99ZM48.96,30.55v-.19c0-.44-.04-.85-.12-1.23-.08-.38-.21-.71-.39-1-.18-.29-.4-.51-.67-.67-.27-.16-.6-.24-.98-.24s-.7.06-.97.19c-.27.13-.5.3-.68.52-.18.22-.32.48-.42.78-.1.3-.17.62-.21.97v1.71c.07.42.19.81.36,1.16.17.35.41.63.73.84.31.21.72.31,1.21.31.38,0,.71-.08.98-.25.27-.17.49-.39.67-.68.17-.29.3-.63.38-1.01.08-.38.12-.79.12-1.22Z"/>
      <path class="cls-1" d="M58.24,32.64c0-.21-.05-.4-.16-.58s-.31-.33-.6-.47c-.3-.14-.73-.27-1.31-.39-.51-.11-.97-.25-1.39-.4-.42-.16-.78-.34-1.08-.57s-.53-.49-.7-.79-.25-.66-.25-1.06.08-.76.26-1.1c.17-.35.41-.65.73-.92.32-.26.7-.47,1.16-.63.46-.15.97-.23,1.53-.23.8,0,1.49.13,2.06.4s1.01.63,1.32,1.08c.31.46.46.97.46,1.54h-2.13c0-.25-.06-.49-.19-.71-.13-.22-.32-.4-.57-.54-.25-.14-.57-.21-.95-.21s-.67.06-.9.17c-.24.12-.41.26-.53.45-.11.18-.17.38-.17.6,0,.16.03.3.09.43.06.13.17.24.31.34s.35.2.6.29c.26.09.58.17.97.26.73.15,1.36.35,1.88.59s.93.54,1.21.92c.28.37.42.84.42,1.42,0,.42-.09.81-.27,1.16s-.44.65-.78.91c-.34.26-.75.45-1.22.6-.47.14-1,.21-1.59.21-.86,0-1.6-.15-2.2-.46-.6-.31-1.05-.71-1.36-1.19s-.46-.99-.46-1.51h2.06c.02.39.13.71.33.94.2.23.44.4.74.5s.6.15.92.15c.38,0,.7-.05.96-.15s.46-.24.59-.42c.14-.18.2-.38.2-.61Z"/>
      <path class="cls-1" d="M66.56,25.68v1.55h-5.38v-1.55h5.38ZM62.73,23.34h2.13v9.24c0,.29.04.52.13.67.09.16.2.26.36.31s.33.08.54.08c.15,0,.29,0,.42-.03s.24-.04.33-.05v1.62c-.17.05-.37.1-.6.14s-.5.06-.8.06c-.49,0-.92-.09-1.3-.26-.38-.17-.67-.46-.88-.85-.21-.39-.32-.92-.32-1.57v-9.38Z"/>
      <path class="cls-1" d="M73.89,29.42l.02,1.31h-1.53c-.39,0-.74.04-1.04.11-.3.07-.55.18-.75.32-.2.14-.35.31-.45.51s-.15.43-.15.68.06.48.18.69c.12.21.29.37.52.49.23.12.5.18.82.18.44,0,.82-.09,1.14-.27.33-.18.58-.4.77-.66.19-.26.29-.51.3-.75l.69.94c-.07.24-.19.5-.36.78-.17.28-.39.54-.67.79s-.6.45-.98.61c-.38.16-.82.24-1.31.24-.62,0-1.18-.12-1.67-.38-.49-.25-.87-.59-1.15-1.01-.28-.43-.41-.91-.41-1.45,0-.5.1-.95.29-1.34.19-.39.47-.72.85-.98.37-.26.83-.47,1.37-.6.54-.14,1.16-.21,1.85-.21h1.67ZM73.58,33.31v-4.55c0-.34-.06-.63-.19-.88s-.31-.44-.56-.57c-.25-.13-.56-.2-.94-.2-.35,0-.65.06-.9.18-.25.12-.45.28-.59.48s-.21.43-.21.68h-2.12c0-.38.09-.74.27-1.09.18-.35.45-.67.79-.94.35-.28.76-.49,1.24-.65.48-.16,1.02-.24,1.62-.24.72,0,1.35.12,1.91.36s.99.6,1.31,1.09c.32.49.48,1.09.48,1.82v4.24c0,.44.03.82.09,1.17.06.34.15.64.27.89v.14h-2.18c-.1-.23-.18-.52-.23-.88-.06-.36-.08-.7-.08-1.04Z"/>
      <path class="cls-1" d="M80.08,21.68v13.55h-2.13v-13.55h2.13ZM86.01,25.68l-4.15,4.6-2.28,2.33-.56-1.8,1.72-2.13,2.7-3.01h2.57ZM83.9,35.22l-3.1-4.48,1.34-1.49,4.22,5.97h-2.46Z"/>
      <path class="cls-1" d="M91.39,35.4c-.71,0-1.34-.12-1.91-.35-.57-.23-1.05-.56-1.45-.97-.4-.42-.7-.91-.91-1.47-.21-.56-.32-1.17-.32-1.83v-.35c0-.75.11-1.42.33-2.03.22-.61.52-1.12.91-1.56s.85-.76,1.38-.99,1.1-.34,1.72-.34c.68,0,1.28.11,1.79.34s.94.55,1.27.97c.34.41.59.91.76,1.48.17.57.25,1.2.25,1.89v.91h-7.37v-1.53h5.27v-.17c-.01-.38-.09-.74-.22-1.08-.14-.33-.35-.61-.63-.81s-.66-.31-1.13-.31c-.35,0-.67.08-.94.22-.27.15-.5.37-.68.65-.18.28-.32.62-.42,1.02-.1.4-.15.84-.15,1.34v.35c0,.42.06.8.17,1.16.11.36.28.67.51.93.22.26.49.47.81.62.32.15.68.23,1.08.23.51,0,.97-.1,1.37-.31.4-.21.75-.5,1.04-.87l1.12,1.08c-.21.3-.47.59-.8.86-.33.27-.73.5-1.2.67-.47.17-1.02.26-1.65.26Z"/>
      <path class="cls-1" d="M102.64,25.68l1.72,7.46.14,2.08h-1.36l-2.58-9.54h2.08ZM103.94,33.11l2.21-7.43h1.36l-.37,2.22-2.22,7.32h-1.22l.25-2.12ZM107.73,25.68l2.18,7.34.27,2.21h-1.22l-2.25-7.33-.37-2.21h1.38ZM109.57,33.05l1.67-7.37h2.07l-2.58,9.54h-1.36l.19-2.17Z"/>
      <path class="cls-1" d="M114.75,23.18c0-.32.11-.59.32-.81.21-.21.51-.32.9-.32s.67.11.89.32c.22.21.33.48.33.81s-.11.58-.33.79c-.22.21-.51.32-.89.32s-.68-.11-.9-.32c-.21-.21-.32-.48-.32-.79ZM117.03,25.68v9.54h-2.13v-9.54h2.13Z"/>
      <path class="cls-1" d="M121.47,27.72v7.51h-2.13v-9.54h2l.12,2.04ZM121.09,30.1h-.69c0-.68.1-1.3.29-1.87.19-.57.44-1.05.78-1.46.33-.41.73-.72,1.2-.94s.98-.33,1.55-.33c.46,0,.87.06,1.25.19.37.13.69.33.96.61.27.28.47.65.61,1.1s.21,1,.21,1.65v6.17h-2.13v-6.17c0-.46-.07-.82-.2-1.09s-.32-.46-.57-.57-.56-.17-.93-.17-.69.08-.98.23c-.29.15-.53.36-.73.63-.2.26-.35.57-.45.92-.11.35-.16.72-.16,1.11Z"/>
      <path class="cls-1" d="M131.52,27.72v7.51h-2.13v-9.54h2l.12,2.04ZM131.14,30.1h-.69c0-.68.1-1.3.29-1.87.19-.57.44-1.05.78-1.46.33-.41.73-.72,1.2-.94s.98-.33,1.55-.33c.46,0,.87.06,1.25.19.37.13.69.33.96.61.27.28.47.65.61,1.1s.21,1,.21,1.65v6.17h-2.13v-6.17c0-.46-.07-.82-.2-1.09s-.32-.46-.57-.57-.56-.17-.93-.17-.69.08-.98.23c-.29.15-.53.36-.73.63-.2.26-.35.57-.45.92-.11.35-.16.72-.16,1.11Z"/>
      <path class="cls-1" d="M143.68,35.4c-.71,0-1.34-.12-1.91-.35-.57-.23-1.05-.56-1.45-.97-.4-.42-.7-.91-.91-1.47-.21-.56-.32-1.17-.32-1.83v-.35c0-.75.11-1.42.33-2.03.22-.61.52-1.12.91-1.56s.85-.76,1.38-.99,1.1-.34,1.72-.34c.68,0,1.28.11,1.79.34s.94.55,1.27.97c.34.41.59.91.76,1.48.17.57.25,1.2.25,1.89v.91h-7.37v-1.53h5.27v-.17c-.01-.38-.09-.74-.22-1.08-.14-.33-.35-.61-.63-.81s-.66-.31-1.13-.31c-.35,0-.67.08-.94.22-.27.15-.5.37-.68.65-.18.28-.32.62-.42,1.02-.1.4-.15.84-.15,1.34v.35c0,.42.06.8.17,1.16.11.36.28.67.51.93.22.26.49.47.81.62.32.15.68.23,1.08.23.51,0,.97-.1,1.37-.31.4-.21.75-.5,1.04-.87l1.12,1.08c-.21.3-.47.59-.8.86-.33.27-.73.5-1.2.67-.47.17-1.02.26-1.65.26Z"/>
      <path class="cls-1" d="M151.28,27.5v7.73h-2.13v-9.54h2.03l.1,1.82ZM154.2,25.62l-.02,1.98c-.13-.02-.27-.04-.42-.05s-.3-.02-.45-.02c-.36,0-.69.05-.96.15s-.51.25-.69.44c-.19.19-.33.42-.43.69s-.16.57-.18.91l-.49.04c0-.6.06-1.16.18-1.67.12-.51.3-.96.53-1.35.24-.39.54-.69.9-.91s.78-.33,1.26-.33c.13,0,.27.01.42.04s.26.05.34.08Z"/>
      <path class="cls-1" d="M155.67,34.22c0-.32.11-.59.32-.82.21-.22.51-.33.9-.33s.67.11.89.33c.22.22.33.49.33.82s-.11.58-.33.8c-.22.22-.51.33-.89.33s-.68-.11-.9-.33c-.21-.22-.32-.49-.32-.8ZM157.98,22.38l-.21,9.06h-1.82l-.22-9.06h2.25Z"/>
      <path class="cls-1" d="M166.24,22.38l2.98,6.13,2.98-6.13h2.45l-4.32,8.12v4.73h-2.23v-4.73l-4.32-8.12h2.46Z"/>
      <path class="cls-1" d="M174.86,30.56v-.2c0-.69.1-1.33.3-1.92s.49-1.11.87-1.54c.38-.44.84-.78,1.39-1.02.55-.24,1.17-.37,1.87-.37s1.32.12,1.87.37c.55.24,1.02.59,1.4,1.02.38.44.67.95.87,1.54.2.59.3,1.23.3,1.92v.2c0,.69-.1,1.33-.3,1.91-.2.59-.49,1.1-.87,1.54-.38.44-.85.78-1.39,1.02s-1.17.37-1.86.37-1.32-.12-1.87-.37-1.02-.58-1.4-1.02c-.38-.44-.67-.95-.87-1.54s-.3-1.23-.3-1.91ZM176.98,30.36v.2c0,.43.04.83.13,1.22.09.38.23.72.41,1.01.19.29.43.51.72.68.29.16.64.25,1.05.25s.74-.08,1.03-.25c.29-.17.53-.39.72-.68s.33-.62.42-1.01c.09-.38.14-.79.14-1.22v-.2c0-.42-.05-.82-.14-1.2-.09-.38-.23-.72-.42-1.01s-.43-.52-.72-.69c-.29-.17-.64-.25-1.04-.25s-.75.08-1.04.25c-.29.17-.53.4-.72.69-.19.29-.33.63-.41,1.01-.09.38-.13.78-.13,1.2Z"/>
      <path class="cls-1" d="M191.55,30.99l.71-.02c0,.64-.07,1.23-.21,1.77s-.36,1.01-.65,1.4c-.29.4-.67.71-1.13.93-.46.22-1.01.33-1.65.33-.46,0-.89-.07-1.28-.2-.39-.14-.72-.34-1-.63s-.5-.65-.65-1.1c-.15-.45-.23-.99-.23-1.62v-6.17h2.13v6.18c0,.35.04.64.12.87.08.23.19.42.33.56.14.14.31.24.49.3s.39.09.6.09c.61,0,1.08-.12,1.43-.36.35-.24.6-.56.75-.97.15-.41.23-.86.23-1.37ZM191.25,32.98v-7.29h2.13v9.54h-2.01l-.12-2.25Z"/>
      <path class="cls-1" d="M197.69,27.5v7.73h-2.13v-9.54h2.03l.1,1.82ZM200.61,25.62l-.02,1.98c-.13-.02-.27-.04-.42-.05s-.3-.02-.45-.02c-.36,0-.69.05-.96.15s-.51.25-.69.44c-.19.19-.33.42-.43.69s-.16.57-.18.91l-.49.04c0-.6.06-1.16.18-1.67.12-.51.3-.96.53-1.35.24-.39.54-.69.9-.91s.78-.33,1.26-.33c.13,0,.27.01.42.04s.26.05.34.08Z"/>
      <path class="cls-1" d="M208.57,27.52v11.38h-2.13v-13.21h1.96l.17,1.83ZM214.79,30.36v.19c0,.69-.08,1.34-.24,1.93-.16.59-.4,1.11-.71,1.54-.31.44-.7.78-1.16,1.02-.46.24-.99.36-1.59.36s-1.11-.11-1.56-.33c-.44-.22-.82-.53-1.12-.94s-.55-.88-.74-1.43-.32-1.15-.39-1.81v-.71c.08-.7.21-1.33.39-1.91s.43-1.06.74-1.47c.31-.41.68-.73,1.12-.95.44-.22.96-.33,1.54-.33s1.13.12,1.6.35c.46.23.86.56,1.17.99s.56.94.71,1.54c.16.6.24,1.26.24,1.99ZM212.66,30.55v-.19c0-.44-.04-.85-.12-1.23-.08-.38-.21-.71-.39-1-.18-.29-.4-.51-.67-.67-.27-.16-.6-.24-.98-.24s-.7.06-.97.19c-.27.13-.5.3-.68.52-.18.22-.32.48-.42.78-.1.3-.17.62-.21.97v1.71c.07.42.19.81.36,1.16.17.35.41.63.73.84.31.21.72.31,1.21.31.38,0,.71-.08.98-.25.27-.17.49-.39.67-.68.17-.29.3-.63.38-1.01.08-.38.12-.79.12-1.22Z"/>
      <path class="cls-1" d="M218.72,27.5v7.73h-2.13v-9.54h2.03l.1,1.82ZM221.64,25.62l-.02,1.98c-.13-.02-.27-.04-.42-.05s-.3-.02-.45-.02c-.36,0-.69.05-.96.15s-.51.25-.69.44c-.19.19-.33.42-.43.69s-.16.57-.18.91l-.49.04c0-.6.06-1.16.18-1.67.12-.51.3-.96.53-1.35.24-.39.54-.69.9-.91s.78-.33,1.26-.33c.13,0,.27.01.42.04s.26.05.34.08Z"/>
      <path class="cls-1" d="M222.97,23.18c0-.32.11-.59.32-.81.21-.21.51-.32.9-.32s.67.11.89.32c.22.21.33.48.33.81s-.11.58-.33.79c-.22.21-.51.32-.89.32s-.68-.11-.9-.32c-.21-.21-.32-.48-.32-.79ZM225.25,25.68v9.54h-2.13v-9.54h2.13Z"/>
      <path class="cls-1" d="M234.76,27l-6.19,8.22h-1.38v-1.37l6.16-8.18h1.41v1.32ZM233.94,25.68v1.69h-6.64v-1.69h6.64ZM234.96,33.53v1.69h-7.11v-1.69h7.11Z"/>
      <path class="cls-1" d="M240.73,35.4c-.71,0-1.34-.12-1.91-.35-.57-.23-1.05-.56-1.45-.97-.4-.42-.7-.91-.91-1.47-.21-.56-.32-1.17-.32-1.83v-.35c0-.75.11-1.42.33-2.03.22-.61.52-1.12.91-1.56s.85-.76,1.38-.99,1.1-.34,1.72-.34c.68,0,1.28.11,1.79.34s.94.55,1.27.97c.34.41.59.91.76,1.48.17.57.25,1.2.25,1.89v.91h-7.37v-1.53h5.27v-.17c-.01-.38-.09-.74-.22-1.08-.14-.33-.35-.61-.63-.81s-.66-.31-1.13-.31c-.35,0-.67.08-.94.22-.27.15-.5.37-.68.65-.18.28-.32.62-.42,1.02-.1.4-.15.84-.15,1.34v.35c0,.42.06.8.17,1.16.11.36.28.67.51.93.22.26.49.47.81.62.32.15.68.23,1.08.23.51,0,.97-.1,1.37-.31.4-.21.75-.5,1.04-.87l1.12,1.08c-.21.3-.47.59-.8.86-.33.27-.73.5-1.2.67-.47.17-1.02.26-1.65.26Z"/>
      <path class="cls-1" d="M250.28,30.56v-.2c0-.69.1-1.33.3-1.92s.49-1.11.87-1.54c.38-.44.84-.78,1.39-1.02.55-.24,1.17-.37,1.87-.37s1.32.12,1.87.37c.55.24,1.02.59,1.4,1.02.38.44.67.95.87,1.54.2.59.3,1.23.3,1.92v.2c0,.69-.1,1.33-.3,1.91-.2.59-.49,1.1-.87,1.54-.38.44-.85.78-1.39,1.02s-1.17.37-1.86.37-1.32-.12-1.87-.37-1.02-.58-1.4-1.02c-.38-.44-.67-.95-.87-1.54s-.3-1.23-.3-1.91ZM252.41,30.36v.2c0,.43.04.83.13,1.22.09.38.23.72.41,1.01.19.29.43.51.72.68.29.16.64.25,1.05.25s.74-.08,1.03-.25c.29-.17.53-.39.72-.68s.33-.62.42-1.01c.09-.38.14-.79.14-1.22v-.2c0-.42-.05-.82-.14-1.2-.09-.38-.23-.72-.42-1.01s-.43-.52-.72-.69c-.29-.17-.64-.25-1.04-.25s-.75.08-1.04.25c-.29.17-.53.4-.72.69-.19.29-.33.63-.41,1.01-.09.38-.13.78-.13,1.2Z"/>
      <path class="cls-1" d="M265.78,25.68v1.55h-5.56v-1.55h5.56ZM263.81,35.22h-2.13v-10.46c0-.71.13-1.31.4-1.79s.65-.85,1.15-1.1c.5-.25,1.09-.38,1.77-.38.21,0,.42.01.63.04.21.03.41.07.6.12l-.05,1.64c-.12-.03-.25-.05-.38-.06s-.29-.02-.45-.02c-.32,0-.6.06-.83.18-.23.12-.41.3-.53.53s-.18.51-.18.85v10.46Z"/>
      <path class="cls-1" d="M277.95,31.88c0-.34-.07-.64-.21-.9s-.36-.49-.67-.7c-.31-.21-.73-.4-1.25-.59-.75-.26-1.41-.56-1.97-.9s-1-.74-1.31-1.23c-.31-.49-.46-1.1-.46-1.84s.17-1.35.5-1.88c.33-.53.79-.94,1.39-1.23.59-.29,1.29-.43,2.08-.43.61,0,1.16.09,1.65.27.49.18.91.45,1.26.8.35.35.61.79.8,1.3s.28,1.1.28,1.77h-2.12c0-.38-.04-.71-.13-1.01-.09-.3-.21-.55-.38-.76s-.36-.37-.6-.48c-.23-.11-.5-.17-.79-.17-.42,0-.76.08-1.03.23-.27.16-.47.37-.6.64s-.19.58-.19.93.06.63.19.88.35.48.67.68c.31.2.75.41,1.3.61.76.27,1.42.57,1.97.9s.98.74,1.29,1.23c.3.48.45,1.09.45,1.83s-.17,1.4-.52,1.93c-.35.53-.84.93-1.46,1.2-.63.27-1.35.41-2.18.41-.52,0-1.04-.07-1.56-.21-.51-.14-.98-.37-1.4-.68-.42-.32-.75-.74-1-1.27s-.37-1.17-.37-1.94h2.13c0,.46.06.84.19,1.15s.29.55.5.72c.21.18.45.3.71.38s.52.11.79.11c.44,0,.81-.07,1.12-.22.3-.15.53-.36.69-.63s.23-.59.23-.94ZM276.62,34.73v2.36h-1.35v-2.36h1.35ZM276.79,20.33v2.64h-1.36v-2.64h1.36Z"/>
      <path class="cls-1" d="M284.18,29.25l-1.69-.41.7-6.46h6.92v1.8h-5.16l-.35,3.15c.2-.12.48-.23.83-.35.35-.11.76-.17,1.21-.17.61,0,1.15.1,1.63.3.48.2.89.48,1.22.86s.59.83.77,1.36c.18.53.26,1.13.26,1.79,0,.59-.09,1.15-.26,1.67-.17.52-.43.97-.78,1.37-.35.39-.78.7-1.31.92s-1.15.33-1.87.33c-.54,0-1.05-.08-1.54-.23-.49-.16-.93-.39-1.32-.7s-.7-.69-.94-1.15c-.24-.46-.37-.98-.41-1.58h2.08c.05.42.17.77.35,1.06.18.29.42.51.72.67.3.15.65.23,1.04.23.36,0,.67-.06.93-.19.26-.13.48-.31.65-.55s.3-.52.39-.84c.08-.32.13-.68.13-1.08s-.05-.72-.15-1.03-.24-.58-.43-.81c-.19-.23-.43-.41-.72-.53-.29-.13-.62-.19-1-.19-.51,0-.89.07-1.16.22-.27.15-.52.33-.75.55Z"/>
      <path class="cls-1" d="M300.58,27.73v2.1c0,1.01-.1,1.86-.3,2.57-.2.71-.48,1.28-.85,1.72-.37.44-.81.76-1.33.97-.51.21-1.09.31-1.72.31-.51,0-.97-.07-1.41-.19s-.82-.33-1.17-.61c-.35-.28-.64-.63-.89-1.07-.24-.44-.43-.96-.56-1.57s-.2-1.32-.2-2.13v-2.1c0-1.01.1-1.87.3-2.56.2-.7.48-1.26.86-1.7.37-.44.81-.76,1.33-.96.51-.2,1.09-.3,1.72-.3.51,0,.98.06,1.42.19.43.13.82.33,1.16.59.34.27.64.62.88,1.05.24.43.43.95.56,1.56.13.61.19,1.32.19,2.12ZM298.46,30.13v-2.72c0-.51-.03-.96-.09-1.35-.06-.39-.15-.72-.26-1s-.26-.5-.43-.67c-.17-.17-.36-.3-.58-.38-.22-.08-.46-.12-.73-.12-.33,0-.62.06-.88.19-.26.13-.48.33-.65.6s-.31.64-.4,1.09-.14,1-.14,1.64v2.72c0,.52.03.97.09,1.37.06.39.15.73.26,1.01s.26.51.43.69.36.31.58.39c.22.08.46.12.73.12.34,0,.63-.06.89-.19.26-.13.48-.34.65-.62.18-.29.31-.66.4-1.12.09-.46.13-1.01.13-1.65Z"/>
      <path class="cls-1" d="M310.85,27.73v2.1c0,1.01-.1,1.86-.3,2.57-.2.71-.48,1.28-.85,1.72-.37.44-.81.76-1.33.97-.51.21-1.09.31-1.72.31-.51,0-.97-.07-1.41-.19s-.82-.33-1.17-.61c-.35-.28-.64-.63-.89-1.07-.24-.44-.43-.96-.56-1.57s-.2-1.32-.2-2.13v-2.1c0-1.01.1-1.87.3-2.56.2-.7.48-1.26.86-1.7.37-.44.81-.76,1.33-.96.51-.2,1.09-.3,1.72-.3.51,0,.98.06,1.42.19.43.13.82.33,1.16.59.34.27.64.62.88,1.05.24.43.43.95.56,1.56.13.61.19,1.32.19,2.12ZM308.72,30.13v-2.72c0-.51-.03-.96-.09-1.35-.06-.39-.15-.72-.26-1s-.26-.5-.43-.67c-.17-.17-.36-.3-.58-.38-.22-.08-.46-.12-.73-.12-.33,0-.62.06-.88.19-.26.13-.48.33-.65.6s-.31.64-.4,1.09-.14,1-.14,1.64v2.72c0,.52.03.97.09,1.37.06.39.15.73.26,1.01s.26.51.43.69.36.31.58.39c.22.08.46.12.73.12.34,0,.63-.06.89-.19.26-.13.48-.34.65-.62.18-.29.31-.66.4-1.12.09-.46.13-1.01.13-1.65Z"/>
      <path class="cls-1" d="M317.36,23.18c0-.32.11-.59.32-.81.21-.21.51-.32.9-.32s.67.11.89.32c.22.21.33.48.33.81s-.11.58-.33.79c-.22.21-.51.32-.89.32s-.68-.11-.9-.32c-.21-.21-.32-.48-.32-.79ZM319.64,25.68v9.54h-2.13v-9.54h2.13Z"/>
      <path class="cls-1" d="M327.32,32.64c0-.21-.05-.4-.16-.58s-.31-.33-.6-.47c-.3-.14-.73-.27-1.31-.39-.51-.11-.97-.25-1.39-.4-.42-.16-.78-.34-1.08-.57s-.53-.49-.7-.79-.25-.66-.25-1.06.08-.76.26-1.1c.17-.35.41-.65.73-.92.32-.26.7-.47,1.16-.63.46-.15.97-.23,1.53-.23.8,0,1.49.13,2.06.4s1.01.63,1.32,1.08c.31.46.46.97.46,1.54h-2.13c0-.25-.06-.49-.19-.71-.13-.22-.32-.4-.57-.54-.25-.14-.57-.21-.95-.21s-.67.06-.9.17c-.24.12-.41.26-.53.45-.11.18-.17.38-.17.6,0,.16.03.3.09.43.06.13.17.24.31.34s.35.2.6.29c.26.09.58.17.97.26.73.15,1.36.35,1.88.59s.93.54,1.21.92c.28.37.42.84.42,1.42,0,.42-.09.81-.27,1.16s-.44.65-.78.91c-.34.26-.75.45-1.22.6-.47.14-1,.21-1.59.21-.86,0-1.6-.15-2.2-.46-.6-.31-1.05-.71-1.36-1.19s-.46-.99-.46-1.51h2.06c.02.39.13.71.33.94.2.23.44.4.74.5s.6.15.92.15c.38,0,.7-.05.96-.15s.46-.24.59-.42c.14-.18.2-.38.2-.61Z"/>
      <path class="cls-1" d="M337.88,27.5v7.73h-2.13v-9.54h2.03l.1,1.82ZM340.8,25.62l-.02,1.98c-.13-.02-.27-.04-.42-.05s-.3-.02-.45-.02c-.36,0-.69.05-.96.15s-.51.25-.69.44c-.19.19-.33.42-.43.69s-.16.57-.18.91l-.49.04c0-.6.06-1.16.18-1.67.12-.51.3-.96.53-1.35.24-.39.54-.69.9-.91s.78-.33,1.26-.33c.13,0,.27.01.42.04s.26.05.34.08Z"/>
      <path class="cls-1" d="M346.18,35.4c-.71,0-1.34-.12-1.91-.35-.57-.23-1.05-.56-1.45-.97-.4-.42-.7-.91-.91-1.47-.21-.56-.32-1.17-.32-1.83v-.35c0-.75.11-1.42.33-2.03.22-.61.52-1.12.91-1.56s.85-.76,1.38-.99,1.1-.34,1.72-.34c.68,0,1.28.11,1.79.34s.94.55,1.27.97c.34.41.59.91.76,1.48.17.57.25,1.2.25,1.89v.91h-7.37v-1.53h5.27v-.17c-.01-.38-.09-.74-.22-1.08-.14-.33-.35-.61-.63-.81s-.66-.31-1.13-.31c-.35,0-.67.08-.94.22-.27.15-.5.37-.68.65-.18.28-.32.62-.42,1.02-.1.4-.15.84-.15,1.34v.35c0,.42.06.8.17,1.16.11.36.28.67.51.93.22.26.49.47.81.62.32.15.68.23,1.08.23.51,0,.97-.1,1.37-.31.4-.21.75-.5,1.04-.87l1.12,1.08c-.21.3-.47.59-.8.86-.33.27-.73.5-1.2.67-.47.17-1.02.26-1.65.26Z"/>
      <path class="cls-1" d="M357.33,29.42l.02,1.31h-1.53c-.39,0-.74.04-1.04.11-.3.07-.55.18-.75.32-.2.14-.35.31-.45.51s-.15.43-.15.68.06.48.18.69c.12.21.29.37.52.49.23.12.5.18.82.18.44,0,.82-.09,1.14-.27s.58-.4.77-.66.29-.51.3-.75l.69.94c-.07.24-.19.5-.36.78-.17.28-.39.54-.67.79s-.6.45-.98.61c-.38.16-.82.24-1.31.24-.62,0-1.18-.12-1.67-.38-.49-.25-.87-.59-1.15-1.01-.28-.43-.41-.91-.41-1.45,0-.5.1-.95.29-1.34.19-.39.47-.72.85-.98.37-.26.83-.47,1.37-.6.54-.14,1.16-.21,1.85-.21h1.67ZM357.02,33.31v-4.55c0-.34-.06-.63-.19-.88-.12-.25-.31-.44-.56-.57-.25-.13-.56-.2-.94-.2-.35,0-.65.06-.9.18-.25.12-.45.28-.59.48-.14.2-.21.43-.21.68h-2.12c0-.38.09-.74.27-1.09.18-.35.45-.67.79-.94.35-.28.76-.49,1.24-.65.48-.16,1.02-.24,1.62-.24.72,0,1.35.12,1.91.36s.99.6,1.31,1.09c.32.49.48,1.09.48,1.82v4.24c0,.44.03.82.09,1.17.06.34.15.64.27.89v.14h-2.18c-.1-.23-.18-.52-.23-.88-.06-.36-.08-.7-.08-1.04Z"/>
      <path class="cls-1" d="M360.99,30.56v-.19c0-.72.08-1.38.26-1.98.17-.6.42-1.11.74-1.54s.72-.76,1.18-1c.46-.23.99-.35,1.57-.35s1.08.11,1.52.33c.43.22.81.54,1.11.96.31.41.55.91.73,1.48.18.57.31,1.21.39,1.91v.59c-.08.68-.21,1.31-.39,1.87-.18.56-.43,1.05-.73,1.46s-.68.73-1.12.95c-.44.22-.95.34-1.53.34s-1.09-.12-1.56-.36-.85-.58-1.18-1.01c-.32-.44-.57-.95-.74-1.54-.17-.59-.26-1.23-.26-1.93ZM363.12,30.37v.19c0,.44.04.84.12,1.22.08.38.2.71.38.99s.39.51.67.67.6.24.98.24c.48,0,.88-.11,1.19-.32.31-.21.56-.5.74-.86.18-.36.3-.77.37-1.21v-1.6c-.04-.35-.11-.67-.22-.97-.11-.3-.25-.56-.44-.79s-.41-.4-.67-.53c-.27-.13-.58-.19-.95-.19-.39,0-.72.08-.99.25-.27.16-.49.39-.67.68-.17.29-.3.62-.38,1.01-.08.38-.12.79-.12,1.23ZM367.2,33.25v-11.57h2.13v13.55h-1.93l-.2-1.98Z"/>
      <path class="cls-1" d="M372.87,25.68l2.27,7.14.38,2.24-1.47.38-3.47-9.76h2.29ZM374.33,34.18l2.59-8.5h2.28l-3.83,11c-.09.24-.2.49-.34.77-.14.28-.33.54-.55.79s-.51.45-.84.61c-.34.16-.74.23-1.22.23-.19,0-.37-.02-.54-.05-.17-.03-.34-.07-.49-.1v-1.62s.12.01.21.02c.08,0,.15,0,.21,0,.35,0,.65-.04.88-.13.24-.09.43-.22.58-.41.15-.19.28-.44.38-.76l.69-1.85Z"/>
      <path class="cls-1" d="M389.27,25.68v1.55h-5.38v-1.55h5.38ZM385.44,23.34h2.13v9.24c0,.29.04.52.13.67.08.16.2.26.36.31.15.05.33.08.54.08.15,0,.29,0,.42-.03.13-.02.24-.04.33-.05v1.62c-.17.05-.37.1-.6.14-.23.04-.5.06-.8.06-.49,0-.92-.09-1.3-.26-.38-.17-.67-.46-.88-.85-.21-.39-.32-.92-.32-1.57v-9.38Z"/>
      <path class="cls-1" d="M390.3,30.56v-.2c0-.69.1-1.33.3-1.92.2-.59.49-1.11.87-1.54.38-.44.84-.78,1.39-1.02.55-.24,1.17-.37,1.87-.37s1.32.12,1.87.37c.55.24,1.02.59,1.4,1.02.38.44.67.95.87,1.54.2.59.3,1.23.3,1.92v.2c0,.69-.1,1.33-.3,1.91-.2.59-.49,1.1-.87,1.54-.38.44-.85.78-1.39,1.02s-1.17.37-1.86.37-1.33-.12-1.88-.37-1.02-.58-1.4-1.02c-.38-.44-.67-.95-.87-1.54-.2-.59-.3-1.23-.3-1.91ZM392.42,30.36v.2c0,.43.04.83.13,1.22.09.38.23.72.41,1.01s.43.51.72.68c.29.16.64.25,1.05.25s.74-.08,1.03-.25c.29-.17.53-.39.72-.68s.33-.62.42-1.01c.09-.38.14-.79.14-1.22v-.2c0-.42-.05-.82-.14-1.2-.09-.38-.23-.72-.42-1.01-.19-.29-.43-.52-.72-.69-.29-.17-.64-.25-1.04-.25s-.75.08-1.04.25c-.29.17-.53.4-.72.69s-.33.63-.41,1.01c-.09.38-.13.78-.13,1.2Z"/>
      <path class="cls-1" d="M405.45,21.68h2.13v11.51l-.2,2.04h-1.92v-13.55ZM413.8,30.36v.19c0,.71-.08,1.35-.23,1.95-.16.59-.39,1.1-.71,1.54-.32.43-.7.77-1.17,1.01-.46.24-1,.36-1.6.36s-1.11-.11-1.55-.34c-.44-.22-.81-.54-1.11-.95s-.54-.9-.72-1.47c-.18-.57-.31-1.2-.39-1.89v-.59c.08-.69.21-1.33.39-1.89.18-.57.42-1.06.72-1.47.3-.42.66-.73,1.1-.96.44-.22.95-.33,1.54-.33s1.15.12,1.62.35c.47.24.86.57,1.17,1s.54.95.7,1.54.23,1.25.23,1.97ZM411.68,30.55v-.19c0-.43-.04-.83-.11-1.21-.07-.38-.19-.71-.35-1-.16-.29-.38-.52-.65-.68-.27-.17-.61-.25-1.02-.25-.38,0-.7.06-.97.19-.27.13-.5.31-.68.53-.18.22-.33.48-.43.78-.1.29-.17.61-.21.95v1.6c.05.44.17.84.34,1.21.17.37.42.66.74.88.32.22.73.33,1.23.33.39,0,.73-.08,1-.24.27-.16.49-.38.65-.67.16-.29.28-.62.35-1,.07-.38.11-.79.11-1.23Z"/>
      <path class="cls-1" d="M419.8,35.4c-.71,0-1.34-.12-1.91-.35s-1.05-.56-1.45-.97c-.4-.42-.7-.91-.91-1.47-.21-.56-.32-1.17-.32-1.83v-.35c0-.75.11-1.42.33-2.03.22-.61.52-1.12.91-1.56.39-.43.85-.76,1.38-.99s1.1-.34,1.72-.34c.68,0,1.28.11,1.79.34s.94.55,1.27.97c.34.41.59.91.76,1.48.17.57.25,1.2.25,1.89v.91h-7.37v-1.53h5.28v-.17c-.01-.38-.09-.74-.23-1.08-.14-.33-.35-.61-.63-.81s-.66-.31-1.13-.31c-.35,0-.67.08-.94.22-.27.15-.5.37-.68.65-.18.28-.32.62-.42,1.02-.1.4-.15.84-.15,1.34v.35c0,.42.06.8.17,1.16.11.36.28.67.51.93s.49.47.81.62c.32.15.68.23,1.08.23.51,0,.97-.1,1.37-.31.4-.21.75-.5,1.04-.87l1.12,1.08c-.21.3-.47.59-.8.86-.33.27-.73.5-1.2.67-.47.17-1.02.26-1.65.26Z"/>
      <path class="cls-1" d="M4.58,55.38c.35,0,.66-.07.94-.21.28-.14.51-.33.68-.58s.27-.53.29-.86h2c-.01.62-.19,1.18-.55,1.69-.35.51-.82.91-1.4,1.2-.58.3-1.23.45-1.93.45s-1.36-.12-1.91-.38-.99-.6-1.35-1.04c-.36-.44-.63-.95-.81-1.53-.18-.58-.27-1.19-.27-1.85v-.31c0-.66.09-1.28.27-1.86.18-.58.45-1.09.81-1.53.36-.44.81-.79,1.35-1.04.54-.25,1.17-.37,1.9-.37.76,0,1.43.15,2.01.45s1.03.72,1.36,1.26.5,1.16.52,1.88h-2c-.02-.35-.1-.67-.26-.96s-.37-.51-.65-.68c-.28-.17-.61-.26-1-.26-.43,0-.78.09-1.07.26-.28.17-.5.41-.66.71s-.27.63-.34,1c-.07.37-.1.75-.1,1.14v.31c0,.39.03.78.1,1.15.06.37.18.7.34.99.16.29.38.52.67.7.28.17.64.26,1.08.26Z"/>
      <path class="cls-1" d="M12.38,43.35v13.55h-2.13v-13.55h2.13Z"/>
      <path class="cls-1" d="M20.4,51.1l.02,1.31h-1.53c-.39,0-.74.04-1.04.11-.3.07-.55.18-.75.32-.2.14-.35.31-.45.51s-.15.43-.15.68.06.48.18.69c.12.21.29.37.52.49.23.12.5.18.82.18.44,0,.82-.09,1.14-.27.33-.18.58-.4.77-.66.19-.26.29-.51.3-.75l.69.94c-.07.24-.19.5-.36.78-.17.28-.39.54-.67.79s-.6.45-.98.61c-.38.16-.82.24-1.31.24-.62,0-1.18-.12-1.67-.38-.49-.25-.87-.59-1.15-1.01-.28-.43-.41-.91-.41-1.45,0-.5.1-.95.29-1.34.19-.39.47-.72.85-.98.37-.26.83-.47,1.37-.6.54-.14,1.16-.21,1.85-.21h1.67ZM20.09,54.99v-4.55c0-.34-.06-.63-.19-.88s-.31-.44-.56-.57c-.25-.13-.56-.2-.94-.2-.35,0-.65.06-.9.18-.25.12-.45.28-.59.48s-.21.43-.21.68h-2.12c0-.38.09-.74.27-1.09.18-.35.45-.67.79-.94.35-.28.76-.49,1.24-.65.48-.16,1.02-.24,1.62-.24.72,0,1.35.12,1.91.36s.99.6,1.31,1.09c.32.49.48,1.09.48,1.82v4.24c0,.44.03.82.09,1.17.06.34.15.64.27.89v.14h-2.18c-.1-.23-.18-.52-.23-.88-.06-.36-.08-.7-.08-1.04Z"/>
      <path class="cls-1" d="M24.45,44.85c0-.32.11-.59.32-.81.21-.21.51-.32.9-.32s.67.11.89.32c.22.21.33.48.33.81s-.11.58-.33.79c-.22.21-.51.32-.89.32s-.68-.11-.9-.32c-.21-.21-.32-.48-.32-.79ZM26.73,47.36v9.54h-2.13v-9.54h2.13Z"/>
      <path class="cls-1" d="M31.18,49.3v7.6h-2.13v-9.54h2l.12,1.94ZM30.84,51.78h-.72c0-.67.08-1.28.25-1.83s.41-1.05.72-1.46c.32-.42.71-.74,1.19-.96.47-.23,1.02-.34,1.65-.34.44,0,.83.06,1.2.19.36.13.68.33.94.59.27.27.47.62.62,1.04.14.42.22.94.22,1.54v6.36h-2.13v-6.17c0-.46-.07-.83-.21-1.09-.14-.26-.33-.46-.59-.57s-.56-.17-.91-.17c-.4,0-.74.08-1.02.23-.28.15-.51.36-.68.63-.18.26-.31.57-.39.92-.08.35-.12.72-.12,1.11ZM36.75,51.21l-1,.22c0-.58.08-1.12.24-1.64.16-.51.4-.97.71-1.36.31-.39.7-.7,1.17-.92s1-.33,1.6-.33c.49,0,.92.07,1.31.2.39.13.71.34.98.62.27.28.48.65.62,1.1s.21.99.21,1.63v6.17h-2.13v-6.18c0-.48-.07-.86-.21-1.12-.14-.26-.33-.45-.59-.55s-.56-.15-.91-.15c-.33,0-.62.06-.87.18s-.46.29-.63.5c-.17.21-.3.46-.38.74-.09.28-.13.58-.13.9Z"/>
      <path class="cls-1" d="M49,57.08c-.71,0-1.34-.12-1.91-.35-.57-.23-1.05-.56-1.45-.97-.4-.42-.7-.91-.91-1.47-.21-.56-.32-1.17-.32-1.83v-.35c0-.75.11-1.42.33-2.03.22-.61.52-1.12.91-1.56s.85-.76,1.38-.99,1.1-.34,1.72-.34c.68,0,1.28.11,1.79.34s.94.55,1.27.97c.34.41.59.91.76,1.48.17.57.25,1.2.25,1.89v.91h-7.37v-1.53h5.27v-.17c-.01-.38-.09-.74-.22-1.08-.14-.33-.35-.61-.63-.81s-.66-.31-1.13-.31c-.35,0-.67.08-.94.22-.27.15-.5.37-.68.65-.18.28-.32.62-.42,1.02-.1.4-.15.84-.15,1.34v.35c0,.42.06.8.17,1.16.11.36.28.67.51.93.22.26.49.47.81.62.32.15.68.23,1.08.23.51,0,.97-.1,1.37-.31.4-.21.75-.5,1.04-.87l1.12,1.08c-.21.3-.47.59-.8.86-.33.27-.73.5-1.2.67-.47.17-1.02.26-1.65.26Z"/>
      <path class="cls-1" d="M54.08,52.24v-.19c0-.72.09-1.38.26-1.98s.42-1.11.74-1.54c.32-.43.72-.76,1.18-1,.46-.23.99-.35,1.57-.35s1.08.11,1.52.33c.44.22.81.54,1.11.96.31.41.55.91.73,1.48s.31,1.21.39,1.91v.59c-.08.68-.21,1.31-.39,1.87s-.43,1.05-.73,1.46c-.31.41-.68.73-1.12.95-.44.22-.95.34-1.53.34s-1.1-.12-1.56-.36c-.46-.24-.85-.58-1.18-1.01-.32-.44-.57-.95-.74-1.54-.17-.59-.26-1.23-.26-1.93ZM56.2,52.05v.19c0,.44.04.84.12,1.22.08.38.2.71.38.99s.39.51.67.67.6.24.98.24c.48,0,.88-.11,1.19-.32.31-.21.56-.5.74-.86.18-.36.3-.77.37-1.21v-1.6c-.04-.35-.11-.67-.22-.97s-.25-.56-.44-.79-.41-.4-.67-.53c-.27-.13-.58-.19-.95-.19-.39,0-.72.08-.99.25-.27.16-.49.39-.67.68s-.3.62-.38,1.01c-.08.38-.12.79-.12,1.23ZM60.29,54.93v-11.57h2.13v13.55h-1.93l-.2-1.98Z"/>
      <path class="cls-1" d="M64.73,55.84c0-.33.11-.61.33-.83.22-.23.53-.34.91-.34s.69.11.91.34c.22.23.33.5.33.83s-.11.61-.33.83c-.22.22-.52.33-.91.33s-.69-.11-.91-.33-.33-.5-.33-.83Z"/>
      <path class="cls-1" d="M76.58,44.06v12.84h-2.21v-12.84h2.21ZM78.1,56.9h-2.74l.02-1.75h2.73c.79,0,1.46-.17,2-.52.54-.35.94-.84,1.22-1.49.27-.65.41-1.42.41-2.31v-.7c0-.69-.08-1.31-.23-1.84s-.38-.99-.69-1.35c-.3-.37-.67-.64-1.11-.83-.44-.19-.94-.28-1.51-.28h-2.88v-1.76h2.88c.85,0,1.63.14,2.34.43s1.32.7,1.83,1.23c.51.54.91,1.18,1.19,1.92.28.75.41,1.58.41,2.5v.68c0,.92-.14,1.76-.41,2.5s-.67,1.39-1.19,1.92c-.52.53-1.13.94-1.85,1.23s-1.51.43-2.39.43Z"/>
      <path class="cls-1" d="M85.54,52.24v-.2c0-.69.1-1.33.3-1.92s.49-1.11.87-1.54c.38-.44.84-.78,1.39-1.02.55-.24,1.17-.37,1.87-.37s1.32.12,1.87.37c.55.24,1.02.59,1.4,1.02.38.44.67.95.87,1.54.2.59.3,1.23.3,1.92v.2c0,.69-.1,1.33-.3,1.91-.2.59-.49,1.1-.87,1.54-.38.44-.85.78-1.39,1.02s-1.17.37-1.86.37-1.32-.12-1.87-.37-1.02-.58-1.4-1.02c-.38-.44-.67-.95-.87-1.54s-.3-1.23-.3-1.91ZM87.67,52.03v.2c0,.43.04.83.13,1.22.09.38.23.72.41,1.01.19.29.43.51.72.68.29.16.64.25,1.05.25s.74-.08,1.03-.25c.29-.17.53-.39.72-.68s.33-.62.42-1.01c.09-.38.14-.79.14-1.22v-.2c0-.42-.05-.82-.14-1.2-.09-.38-.23-.72-.42-1.01s-.43-.52-.72-.69c-.29-.17-.64-.25-1.04-.25s-.75.08-1.04.25c-.29.17-.53.4-.72.69-.19.29-.33.63-.41,1.01-.09.38-.13.78-.13,1.2Z"/>
      <path class="cls-1" d="M98.3,49.4v7.51h-2.13v-9.54h2l.12,2.04ZM97.92,51.78h-.69c0-.68.1-1.3.29-1.87.19-.57.44-1.05.78-1.46.33-.41.73-.72,1.2-.94s.98-.33,1.55-.33c.46,0,.87.06,1.25.19.37.13.69.33.96.61.27.28.47.65.61,1.1s.21,1,.21,1.65v6.17h-2.13v-6.17c0-.46-.07-.82-.2-1.09s-.32-.46-.57-.57-.56-.17-.93-.17-.69.08-.98.23c-.29.15-.53.36-.73.63-.2.26-.35.57-.45.92-.11.35-.16.72-.16,1.11Z"/>
      <path class="cls-1" d="M106.66,43.35v1.14l-.23,3.4h-1.38v-3.25s0-1.28,0-1.28h1.61Z"/>
      <path class="cls-1" d="M112.81,47.36v1.55h-5.38v-1.55h5.38ZM108.99,45.02h2.13v9.24c0,.29.04.52.13.67.09.16.2.26.36.31s.33.08.54.08c.15,0,.29,0,.42-.03s.24-.04.33-.05v1.62c-.17.05-.37.1-.6.14s-.5.06-.8.06c-.49,0-.92-.09-1.3-.26-.38-.17-.67-.46-.88-.85-.21-.39-.32-.92-.32-1.57v-9.38Z"/>
      <path class="cls-1" d="M121.07,49.3v7.6h-2.13v-9.54h2l.12,1.94ZM120.73,51.78h-.72c0-.67.08-1.28.25-1.83s.41-1.05.72-1.46c.32-.42.71-.74,1.19-.96.47-.23,1.02-.34,1.65-.34.44,0,.83.06,1.2.19.36.13.68.33.94.59.27.27.47.62.62,1.04.14.42.22.94.22,1.54v6.36h-2.13v-6.17c0-.46-.07-.83-.21-1.09-.14-.26-.33-.46-.59-.57s-.56-.17-.91-.17c-.4,0-.74.08-1.02.23-.28.15-.51.36-.68.63-.18.26-.31.57-.39.92-.08.35-.12.72-.12,1.11ZM126.64,51.21l-1,.22c0-.58.08-1.12.24-1.64.16-.51.4-.97.71-1.36.31-.39.7-.7,1.17-.92s1-.33,1.6-.33c.49,0,.92.07,1.31.2.39.13.71.34.98.62.27.28.48.65.62,1.1s.21.99.21,1.63v6.17h-2.13v-6.18c0-.48-.07-.86-.21-1.12-.14-.26-.33-.45-.59-.55s-.56-.15-.91-.15c-.33,0-.62.06-.87.18s-.46.29-.63.5c-.17.21-.3.46-.38.74-.09.28-.13.58-.13.9Z"/>
      <path class="cls-1" d="M134.68,44.85c0-.32.11-.59.32-.81.21-.21.51-.32.9-.32s.67.11.89.32c.22.21.33.48.33.81s-.11.58-.33.79c-.22.21-.51.32-.89.32s-.68-.11-.9-.32c-.21-.21-.32-.48-.32-.79ZM136.96,47.36v9.54h-2.13v-9.54h2.13Z"/>
      <path class="cls-1" d="M144.64,54.32c0-.21-.05-.4-.16-.58s-.31-.33-.6-.47c-.3-.14-.73-.27-1.31-.39-.51-.11-.97-.25-1.39-.4-.42-.16-.78-.34-1.08-.57s-.53-.49-.7-.79-.25-.66-.25-1.06.08-.76.26-1.1c.17-.35.41-.65.73-.92.32-.26.7-.47,1.16-.63.46-.15.97-.23,1.53-.23.8,0,1.49.13,2.06.4s1.01.63,1.32,1.08c.31.46.46.97.46,1.54h-2.13c0-.25-.06-.49-.19-.71-.13-.22-.32-.4-.57-.54-.25-.14-.57-.21-.95-.21s-.67.06-.9.17c-.24.12-.41.26-.53.45-.11.18-.17.38-.17.6,0,.16.03.3.09.43.06.13.17.24.31.34s.35.2.6.29c.26.09.58.17.97.26.73.15,1.36.35,1.88.59s.93.54,1.21.92c.28.37.42.84.42,1.42,0,.42-.09.81-.27,1.16s-.44.65-.78.91c-.34.26-.75.45-1.22.6-.47.14-1,.21-1.59.21-.86,0-1.6-.15-2.2-.46-.6-.31-1.05-.71-1.36-1.19s-.46-.99-.46-1.51h2.06c.02.39.13.71.33.94.2.23.44.4.74.5s.6.15.92.15c.38,0,.7-.05.96-.15s.46-.24.59-.42c.14-.18.2-.38.2-.61Z"/>
      <path class="cls-1" d="M153.93,54.32c0-.21-.05-.4-.16-.58s-.31-.33-.6-.47c-.3-.14-.73-.27-1.31-.39-.51-.11-.97-.25-1.39-.4-.42-.16-.78-.34-1.08-.57s-.53-.49-.7-.79-.25-.66-.25-1.06.08-.76.26-1.1c.17-.35.41-.65.73-.92.32-.26.7-.47,1.16-.63.46-.15.97-.23,1.53-.23.8,0,1.49.13,2.06.4s1.01.63,1.32,1.08c.31.46.46.97.46,1.54h-2.13c0-.25-.06-.49-.19-.71-.13-.22-.32-.4-.57-.54-.25-.14-.57-.21-.95-.21s-.67.06-.9.17c-.24.12-.41.26-.53.45-.11.18-.17.38-.17.6,0,.16.03.3.09.43.06.13.17.24.31.34s.35.2.6.29c.26.09.58.17.97.26.73.15,1.36.35,1.88.59s.93.54,1.21.92c.28.37.42.84.42,1.42,0,.42-.09.81-.27,1.16s-.44.65-.78.91c-.34.26-.75.45-1.22.6-.47.14-1,.21-1.59.21-.86,0-1.6-.15-2.2-.46-.6-.31-1.05-.71-1.36-1.19s-.46-.99-.46-1.51h2.06c.02.39.13.71.33.94.2.23.44.4.74.5s.6.15.92.15c.38,0,.7-.05.96-.15s.46-.24.59-.42c.14-.18.2-.38.2-.61Z"/>
      <path class="cls-1" d="M161.96,52.24v-.2c0-.69.1-1.33.3-1.92s.49-1.11.87-1.54c.38-.44.84-.78,1.39-1.02.55-.24,1.17-.37,1.87-.37s1.32.12,1.87.37c.55.24,1.02.59,1.4,1.02.38.44.67.95.87,1.54.2.59.3,1.23.3,1.92v.2c0,.69-.1,1.33-.3,1.91-.2.59-.49,1.1-.87,1.54-.38.44-.85.78-1.39,1.02s-1.17.37-1.86.37-1.32-.12-1.87-.37-1.02-.58-1.4-1.02c-.38-.44-.67-.95-.87-1.54s-.3-1.23-.3-1.91ZM164.09,52.03v.2c0,.43.04.83.13,1.22.09.38.23.72.41,1.01.19.29.43.51.72.68.29.16.64.25,1.05.25s.74-.08,1.03-.25c.29-.17.53-.39.72-.68s.33-.62.42-1.01c.09-.38.14-.79.14-1.22v-.2c0-.42-.05-.82-.14-1.2-.09-.38-.23-.72-.42-1.01s-.43-.52-.72-.69c-.29-.17-.64-.25-1.04-.25s-.75.08-1.04.25c-.29.17-.53.4-.72.69-.19.29-.33.63-.41,1.01-.09.38-.13.78-.13,1.2Z"/>
      <path class="cls-1" d="M178.66,52.67l.71-.02c0,.64-.07,1.23-.21,1.77s-.36,1.01-.65,1.4c-.29.4-.67.71-1.13.93-.46.22-1.01.33-1.65.33-.46,0-.89-.07-1.28-.2-.39-.14-.72-.34-1-.63s-.5-.65-.65-1.1c-.15-.45-.23-.99-.23-1.62v-6.17h2.13v6.18c0,.35.04.64.12.87.08.23.19.42.33.56.14.14.31.24.49.3s.39.09.6.09c.61,0,1.08-.12,1.43-.36.35-.24.6-.56.75-.97.15-.41.23-.86.23-1.37ZM178.36,54.65v-7.29h2.13v9.54h-2.01l-.12-2.25Z"/>
      <path class="cls-1" d="M187.04,47.36v1.55h-5.38v-1.55h5.38ZM183.21,45.02h2.13v9.24c0,.29.04.52.13.67.09.16.2.26.36.31s.33.08.54.08c.15,0,.29,0,.42-.03s.24-.04.33-.05v1.62c-.17.05-.37.1-.6.14s-.5.06-.8.06c-.49,0-.92-.09-1.3-.26-.38-.17-.67-.46-.88-.85-.21-.39-.32-.92-.32-1.57v-9.38Z"/>
      <path class="cls-1" d="M192.76,52.24v-.2c0-.69.1-1.33.3-1.92s.49-1.11.87-1.54c.38-.44.84-.78,1.39-1.02.55-.24,1.17-.37,1.87-.37s1.32.12,1.87.37c.55.24,1.02.59,1.4,1.02.38.44.67.95.87,1.54.2.59.3,1.23.3,1.92v.2c0,.69-.1,1.33-.3,1.91-.2.59-.49,1.1-.87,1.54-.38.44-.85.78-1.39,1.02s-1.17.37-1.86.37-1.32-.12-1.87-.37-1.02-.58-1.4-1.02c-.38-.44-.67-.95-.87-1.54s-.3-1.23-.3-1.91ZM194.89,52.03v.2c0,.43.04.83.13,1.22.09.38.23.72.41,1.01.19.29.43.51.72.68.29.16.64.25,1.05.25s.74-.08,1.03-.25c.29-.17.53-.39.72-.68s.33-.62.42-1.01c.09-.38.14-.79.14-1.22v-.2c0-.42-.05-.82-.14-1.2-.09-.38-.23-.72-.42-1.01s-.43-.52-.72-.69c-.29-.17-.64-.25-1.04-.25s-.75.08-1.04.25c-.29.17-.53.4-.72.69-.19.29-.33.63-.41,1.01-.09.38-.13.78-.13,1.2Z"/>
      <path class="cls-1" d="M205.52,49.4v7.51h-2.13v-9.54h2l.12,2.04ZM205.15,51.78h-.69c0-.68.1-1.3.29-1.87.19-.57.44-1.05.78-1.46.33-.41.73-.72,1.2-.94s.98-.33,1.55-.33c.46,0,.87.06,1.25.19.37.13.69.33.96.61.27.28.47.65.61,1.1s.21,1,.21,1.65v6.17h-2.13v-6.17c0-.46-.07-.82-.2-1.09s-.32-.46-.57-.57-.56-.17-.93-.17-.69.08-.98.23c-.29.15-.53.36-.73.63-.2.26-.35.57-.45.92-.11.35-.16.72-.16,1.11Z"/>
      <path class="cls-1" d="M222.34,47.36v1.55h-5.38v-1.55h5.38ZM218.51,45.02h2.13v9.24c0,.29.04.52.13.67.09.16.2.26.36.31s.33.08.54.08c.15,0,.29,0,.42-.03s.24-.04.33-.05v1.62c-.17.05-.37.1-.6.14s-.5.06-.8.06c-.49,0-.92-.09-1.3-.26-.38-.17-.67-.46-.88-.85-.21-.39-.32-.92-.32-1.57v-9.38Z"/>
      <path class="cls-1" d="M226.08,43.35v13.55h-2.12v-13.55h2.12ZM225.71,51.78h-.69c0-.67.1-1.28.28-1.83.18-.56.43-1.05.76-1.46.33-.42.72-.74,1.18-.96.46-.23.97-.34,1.53-.34.47,0,.9.06,1.27.19.38.13.71.34.98.62s.49.66.63,1.11c.14.46.22,1.01.22,1.66v6.13h-2.13v-6.15c0-.46-.07-.82-.2-1.09s-.32-.47-.58-.59-.56-.18-.93-.18-.72.08-1.01.23c-.29.15-.53.36-.73.63-.19.26-.34.57-.44.92-.1.35-.15.72-.15,1.11Z"/>
      <path class="cls-1" d="M234.02,44.85c0-.32.11-.59.32-.81.21-.21.51-.32.9-.32s.67.11.89.32c.22.21.33.48.33.81s-.11.58-.33.79c-.22.21-.51.32-.89.32s-.68-.11-.9-.32c-.21-.21-.32-.48-.32-.79ZM236.29,47.36v9.54h-2.13v-9.54h2.13Z"/>
      <path class="cls-1" d="M243.97,54.32c0-.21-.05-.4-.16-.58s-.31-.33-.6-.47c-.3-.14-.73-.27-1.31-.39-.51-.11-.97-.25-1.39-.4-.42-.16-.78-.34-1.08-.57s-.53-.49-.7-.79-.25-.66-.25-1.06.08-.76.26-1.1c.17-.35.41-.65.73-.92.32-.26.7-.47,1.16-.63.46-.15.97-.23,1.53-.23.8,0,1.49.13,2.06.4s1.01.63,1.32,1.08c.31.46.46.97.46,1.54h-2.13c0-.25-.06-.49-.19-.71-.13-.22-.32-.4-.57-.54-.25-.14-.57-.21-.95-.21s-.67.06-.9.17c-.24.12-.41.26-.53.45-.11.18-.17.38-.17.6,0,.16.03.3.09.43.06.13.17.24.31.34s.35.2.6.29c.26.09.58.17.97.26.73.15,1.36.35,1.88.59s.93.54,1.21.92c.28.37.42.84.42,1.42,0,.42-.09.81-.27,1.16s-.44.65-.78.91c-.34.26-.75.45-1.22.6-.47.14-1,.21-1.59.21-.86,0-1.6-.15-2.2-.46-.6-.31-1.05-.71-1.36-1.19s-.46-.99-.46-1.51h2.06c.02.39.13.71.33.94.2.23.44.4.74.5s.6.15.92.15c.38,0,.7-.05.96-.15s.46-.24.59-.42c.14-.18.2-.38.2-.61Z"/>
      <path class="cls-1" d="M258.09,51.1l.02,1.31h-1.53c-.39,0-.74.04-1.04.11-.3.07-.55.18-.75.32-.2.14-.35.31-.45.51s-.15.43-.15.68.06.48.18.69c.12.21.29.37.52.49.23.12.5.18.82.18.44,0,.82-.09,1.14-.27.33-.18.58-.4.77-.66.19-.26.29-.51.3-.75l.69.94c-.07.24-.19.5-.36.78-.17.28-.39.54-.67.79s-.6.45-.98.61c-.38.16-.82.24-1.31.24-.62,0-1.18-.12-1.67-.38-.49-.25-.87-.59-1.15-1.01-.28-.43-.41-.91-.41-1.45,0-.5.1-.95.29-1.34.19-.39.47-.72.85-.98.37-.26.83-.47,1.37-.6.54-.14,1.16-.21,1.85-.21h1.67ZM257.79,54.99v-4.55c0-.34-.06-.63-.19-.88s-.31-.44-.56-.57c-.25-.13-.56-.2-.94-.2-.35,0-.65.06-.9.18-.25.12-.45.28-.59.48s-.21.43-.21.68h-2.12c0-.38.09-.74.27-1.09.18-.35.45-.67.79-.94.35-.28.76-.49,1.24-.65.48-.16,1.02-.24,1.62-.24.72,0,1.35.12,1.91.36s.99.6,1.31,1.09c.32.49.48,1.09.48,1.82v4.24c0,.44.03.82.09,1.17.06.34.15.64.27.89v.14h-2.18c-.1-.23-.18-.52-.23-.88-.06-.36-.08-.7-.08-1.04Z"/>
      <path class="cls-1" d="M264.27,49.3v7.6h-2.13v-9.54h2l.12,1.94ZM263.92,51.78h-.72c0-.67.08-1.28.25-1.83s.41-1.05.72-1.46c.32-.42.71-.74,1.19-.96.47-.23,1.02-.34,1.65-.34.44,0,.83.06,1.2.19.36.13.68.33.94.59.27.27.47.62.62,1.04.14.42.22.94.22,1.54v6.36h-2.13v-6.17c0-.46-.07-.83-.21-1.09-.14-.26-.33-.46-.59-.57s-.56-.17-.91-.17c-.4,0-.74.08-1.02.23-.28.15-.51.36-.68.63-.18.26-.31.57-.39.92-.08.35-.12.72-.12,1.11ZM269.84,51.21l-1,.22c0-.58.08-1.12.24-1.64.16-.51.4-.97.71-1.36.31-.39.7-.7,1.17-.92s1-.33,1.6-.33c.49,0,.92.07,1.31.2.39.13.71.34.98.62.27.28.48.65.62,1.1s.21.99.21,1.63v6.17h-2.13v-6.18c0-.48-.07-.86-.21-1.12-.14-.26-.33-.45-.59-.55s-.56-.15-.91-.15c-.33,0-.62.06-.87.18s-.46.29-.63.5c-.17.21-.3.46-.38.74-.09.28-.13.58-.13.9Z"/>
      <path class="cls-1" d="M283.57,51.1l.02,1.31h-1.53c-.39,0-.74.04-1.04.11-.3.07-.55.18-.75.32-.2.14-.35.31-.45.51s-.15.43-.15.68.06.48.18.69c.12.21.29.37.52.49.23.12.5.18.82.18.44,0,.82-.09,1.14-.27.33-.18.58-.4.77-.66.19-.26.29-.51.3-.75l.69.94c-.07.24-.19.5-.36.78-.17.28-.39.54-.67.79s-.6.45-.98.61c-.38.16-.82.24-1.31.24-.62,0-1.18-.12-1.67-.38-.49-.25-.87-.59-1.15-1.01-.28-.43-.41-.91-.41-1.45,0-.5.1-.95.29-1.34.19-.39.47-.72.85-.98.37-.26.83-.47,1.37-.6.54-.14,1.16-.21,1.85-.21h1.67ZM283.26,54.99v-4.55c0-.34-.06-.63-.19-.88s-.31-.44-.56-.57c-.25-.13-.56-.2-.94-.2-.35,0-.65.06-.9.18-.25.12-.45.28-.59.48s-.21.43-.21.68h-2.12c0-.38.09-.74.27-1.09.18-.35.45-.67.79-.94.35-.28.76-.49,1.24-.65.48-.16,1.02-.24,1.62-.24.72,0,1.35.12,1.91.36s.99.6,1.31,1.09c.32.49.48,1.09.48,1.82v4.24c0,.44.03.82.09,1.17.06.34.15.64.27.89v.14h-2.18c-.1-.23-.18-.52-.23-.88-.06-.36-.08-.7-.08-1.04Z"/>
      <path class="cls-1" d="M294.81,48.68l-6.19,8.22h-1.38v-1.37l6.16-8.18h1.41v1.32ZM293.98,47.36v1.69h-6.64v-1.69h6.64ZM295,55.21v1.69h-7.11v-1.69h7.11Z"/>
      <path class="cls-1" d="M296.7,44.85c0-.32.11-.59.32-.81.21-.21.51-.32.9-.32s.67.11.89.32c.22.21.33.48.33.81s-.11.58-.33.79c-.22.21-.51.32-.89.32s-.68-.11-.9-.32c-.21-.21-.32-.48-.32-.79ZM298.98,47.36v9.54h-2.13v-9.54h2.13Z"/>
      <path class="cls-1" d="M303.41,49.4v7.51h-2.13v-9.54h2l.12,2.04ZM303.04,51.78h-.69c0-.68.1-1.3.29-1.87.19-.57.44-1.05.78-1.46.33-.41.73-.72,1.2-.94s.98-.33,1.55-.33c.46,0,.87.06,1.25.19.37.13.69.33.96.61.27.28.47.65.61,1.1s.21,1,.21,1.65v6.17h-2.13v-6.17c0-.46-.07-.82-.2-1.09s-.32-.46-.57-.57-.56-.17-.93-.17-.69.08-.98.23c-.29.15-.53.36-.73.63-.2.26-.35.57-.45.92-.11.35-.16.72-.16,1.11Z"/>
      <path class="cls-1" d="M310.99,52.24v-.19c0-.72.09-1.38.26-1.98s.43-1.11.76-1.54c.33-.43.73-.76,1.2-1,.47-.23,1-.35,1.6-.35s1.15.11,1.58.33c.44.22.8.54,1.1.96.29.41.52.91.69,1.48.17.57.29,1.21.37,1.91v.59c-.08.68-.21,1.31-.39,1.87-.18.56-.42,1.05-.72,1.46s-.67.73-1.11.95c-.44.22-.95.34-1.55.34s-1.11-.12-1.57-.36c-.47-.24-.87-.58-1.2-1.01-.33-.44-.59-.95-.76-1.54-.18-.59-.26-1.23-.26-1.93ZM317.47,47.36h1.93v9.28c0,.86-.18,1.59-.55,2.19-.36.6-.87,1.06-1.53,1.37-.65.31-1.41.47-2.27.47-.36,0-.77-.05-1.21-.16-.44-.11-.87-.27-1.29-.51s-.76-.54-1.04-.91l1-1.25c.34.41.72.7,1.13.89.41.19.84.28,1.3.28.49,0,.9-.09,1.25-.27.34-.18.61-.44.8-.79.19-.35.28-.77.28-1.27v-7.16l.19-2.16ZM313.12,52.05v.19c0,.44.04.84.13,1.22.08.38.22.71.4.99.18.29.41.51.69.67.28.16.61.24.99.24.5,0,.91-.11,1.23-.32.32-.21.57-.5.74-.86.17-.36.3-.77.37-1.21v-1.6c-.04-.35-.11-.67-.22-.97s-.25-.56-.44-.79-.41-.4-.69-.53c-.28-.13-.6-.19-.98-.19s-.71.08-1,.25c-.28.16-.51.39-.69.68-.18.29-.31.62-.4,1.01-.09.38-.13.79-.13,1.23Z"/>
      <path class="cls-1" d="M325.69,52.24v-.2c0-.69.1-1.33.3-1.92s.49-1.11.87-1.54c.38-.44.84-.78,1.39-1.02.55-.24,1.17-.37,1.87-.37s1.32.12,1.87.37c.55.24,1.02.59,1.4,1.02.38.44.67.95.87,1.54.2.59.3,1.23.3,1.92v.2c0,.69-.1,1.33-.3,1.91-.2.59-.49,1.1-.87,1.54-.38.44-.85.78-1.39,1.02s-1.17.37-1.86.37-1.32-.12-1.87-.37-1.02-.58-1.4-1.02c-.38-.44-.67-.95-.87-1.54s-.3-1.23-.3-1.91ZM327.81,52.03v.2c0,.43.04.83.13,1.22.09.38.23.72.41,1.01.19.29.43.51.72.68.29.16.64.25,1.05.25s.74-.08,1.03-.25c.29-.17.53-.39.72-.68s.33-.62.42-1.01c.09-.38.14-.79.14-1.22v-.2c0-.42-.05-.82-.14-1.2-.09-.38-.23-.72-.42-1.01s-.43-.52-.72-.69c-.29-.17-.64-.25-1.04-.25s-.75.08-1.04.25c-.29.17-.53.4-.72.69-.19.29-.33.63-.41,1.01-.09.38-.13.78-.13,1.2Z"/>
      <path class="cls-1" d="M338.48,49.19v11.38h-2.13v-13.21h1.96l.17,1.83ZM344.69,52.04v.19c0,.69-.08,1.34-.24,1.93-.16.59-.4,1.11-.71,1.54-.31.44-.7.78-1.16,1.02-.46.24-.99.36-1.59.36s-1.11-.11-1.56-.33c-.44-.22-.82-.53-1.12-.94s-.55-.88-.74-1.43-.32-1.15-.39-1.81v-.71c.08-.7.21-1.33.39-1.91s.43-1.06.74-1.47c.31-.41.68-.73,1.12-.95.44-.22.96-.33,1.54-.33s1.13.12,1.6.35c.46.23.86.56,1.17.99s.56.94.71,1.54c.16.6.24,1.26.24,1.99ZM342.57,52.23v-.19c0-.44-.04-.85-.12-1.23-.08-.38-.21-.71-.39-1-.18-.29-.4-.51-.67-.67-.27-.16-.6-.24-.98-.24s-.7.06-.97.19c-.27.13-.5.3-.68.52-.18.22-.32.48-.42.78-.1.3-.17.62-.21.97v1.71c.07.42.19.81.36,1.16.17.35.41.63.73.84.31.21.72.31,1.21.31.38,0,.71-.08.98-.25.27-.17.49-.39.67-.68.17-.29.3-.63.38-1.01.08-.38.12-.79.12-1.22Z"/>
      <path class="cls-1" d="M348.63,49.19v11.38h-2.13v-13.21h1.96l.17,1.83ZM354.85,52.04v.19c0,.69-.08,1.34-.24,1.93-.16.59-.4,1.11-.71,1.54-.31.44-.7.78-1.16,1.02-.46.24-.99.36-1.59.36s-1.11-.11-1.56-.33c-.44-.22-.82-.53-1.13-.94s-.55-.88-.74-1.43-.32-1.15-.39-1.81v-.71c.08-.7.21-1.33.39-1.91s.43-1.06.74-1.47c.31-.41.68-.73,1.12-.95.44-.22.96-.33,1.54-.33s1.13.12,1.6.35c.46.23.86.56,1.17.99.32.43.55.94.71,1.54.16.6.24,1.26.24,1.99ZM352.72,52.23v-.19c0-.44-.04-.85-.12-1.23-.08-.38-.21-.71-.39-1s-.4-.51-.67-.67c-.27-.16-.6-.24-.98-.24s-.7.06-.97.19c-.27.13-.5.3-.68.52-.18.22-.32.48-.42.78-.1.3-.17.62-.21.97v1.71c.07.42.19.81.36,1.16.17.35.41.63.73.84s.72.31,1.21.31c.38,0,.71-.08.98-.25.27-.17.49-.39.67-.68.17-.29.3-.63.38-1.01.08-.38.12-.79.12-1.22Z"/>
      <path class="cls-1" d="M356.24,52.24v-.2c0-.69.1-1.33.3-1.92.2-.59.49-1.11.87-1.54.38-.44.84-.78,1.39-1.02.55-.24,1.17-.37,1.87-.37s1.32.12,1.87.37c.55.24,1.02.59,1.4,1.02.38.44.67.95.87,1.54.2.59.3,1.23.3,1.92v.2c0,.69-.1,1.33-.3,1.91-.2.59-.49,1.1-.87,1.54-.38.44-.85.78-1.39,1.02s-1.17.37-1.86.37-1.33-.12-1.88-.37-1.02-.58-1.4-1.02c-.38-.44-.67-.95-.87-1.54-.2-.59-.3-1.23-.3-1.91ZM358.37,52.03v.2c0,.43.04.83.13,1.22.09.38.23.72.41,1.01s.43.51.72.68c.29.16.64.25,1.05.25s.74-.08,1.03-.25c.29-.17.53-.39.72-.68s.33-.62.42-1.01c.09-.38.14-.79.14-1.22v-.2c0-.42-.05-.82-.14-1.2-.09-.38-.23-.72-.42-1.01-.19-.29-.43-.52-.72-.69-.29-.17-.64-.25-1.04-.25s-.75.08-1.04.25c-.29.17-.53.4-.72.69s-.33.63-.41,1.01c-.09.38-.13.78-.13,1.2Z"/>
      <path class="cls-1" d="M369.03,49.18v7.73h-2.13v-9.54h2.03l.1,1.82ZM371.95,47.3l-.02,1.98c-.13-.02-.27-.04-.42-.05-.15-.01-.3-.02-.45-.02-.36,0-.68.05-.96.15s-.51.25-.69.44c-.19.19-.33.42-.43.69-.1.27-.16.57-.18.91l-.49.04c0-.6.06-1.16.18-1.67.12-.51.29-.96.53-1.35.24-.39.54-.69.9-.91.36-.22.78-.33,1.26-.33.13,0,.27.01.42.04.15.02.26.05.34.08Z"/>
      <path class="cls-1" d="M378.1,47.36v1.55h-5.38v-1.55h5.38ZM374.27,45.02h2.13v9.24c0,.29.04.52.13.67.08.16.2.26.36.31.15.05.33.08.54.08.15,0,.29,0,.42-.03.13-.02.24-.04.33-.05v1.62c-.17.05-.37.1-.6.14-.23.04-.5.06-.8.06-.49,0-.92-.09-1.3-.26-.38-.17-.67-.46-.88-.85-.21-.39-.32-.92-.32-1.57v-9.38Z"/>
      <path class="cls-1" d="M385.78,52.67l.71-.02c0,.64-.07,1.23-.21,1.77-.14.54-.36,1.01-.65,1.4-.29.4-.67.71-1.13.93-.46.22-1.01.33-1.65.33-.46,0-.89-.07-1.28-.2-.39-.14-.72-.34-1-.63-.28-.28-.5-.65-.65-1.1-.15-.45-.23-.99-.23-1.62v-6.17h2.13v6.18c0,.35.04.64.12.87.08.23.19.42.33.56.14.14.31.24.49.3s.39.09.6.09c.61,0,1.08-.12,1.43-.36.35-.24.6-.56.75-.97.15-.41.22-.86.22-1.37ZM385.48,54.65v-7.29h2.13v9.54h-2.01l-.12-2.25Z"/>
      <path class="cls-1" d="M391.89,49.4v7.51h-2.13v-9.54h2l.12,2.04ZM391.51,51.78h-.69c0-.68.1-1.3.29-1.87.19-.57.44-1.05.78-1.46.33-.41.73-.72,1.2-.94s.98-.33,1.55-.33c.46,0,.87.06,1.25.19.37.13.69.33.96.61.27.28.47.65.61,1.1.14.45.21,1,.21,1.65v6.17h-2.13v-6.17c0-.46-.07-.82-.2-1.09-.13-.27-.32-.46-.57-.57-.25-.11-.56-.17-.93-.17s-.69.08-.98.23c-.29.15-.53.36-.73.63s-.35.57-.45.92c-.11.35-.16.72-.16,1.11Z"/>
      <path class="cls-1" d="M399.84,44.85c0-.32.11-.59.32-.81.21-.21.51-.32.89-.32s.67.11.89.32c.22.21.33.48.33.81s-.11.58-.33.79c-.22.21-.51.32-.89.32s-.68-.11-.89-.32c-.21-.21-.32-.48-.32-.79ZM402.11,47.36v9.54h-2.13v-9.54h2.13Z"/>
      <path class="cls-1" d="M408.82,47.36v1.55h-5.38v-1.55h5.38ZM404.99,45.02h2.13v9.24c0,.29.04.52.13.67.08.16.2.26.36.31.15.05.33.08.54.08.15,0,.29,0,.42-.03.13-.02.24-.04.33-.05v1.62c-.17.05-.37.1-.6.14-.23.04-.5.06-.8.06-.49,0-.92-.09-1.3-.26-.38-.17-.67-.46-.88-.85-.21-.39-.32-.92-.32-1.57v-9.38Z"/>
      <path class="cls-1" d="M411.76,47.36l2.27,7.14.38,2.24-1.47.38-3.47-9.76h2.29ZM413.23,55.86l2.59-8.5h2.28l-3.83,11c-.09.24-.2.49-.34.77-.14.28-.33.54-.55.79s-.51.45-.84.61c-.34.16-.74.23-1.22.23-.19,0-.37-.02-.54-.05-.17-.03-.34-.07-.49-.1v-1.62s.12.01.21.02c.08,0,.15,0,.21,0,.35,0,.65-.04.88-.13.24-.09.43-.22.58-.41.15-.19.28-.44.38-.76l.69-1.85Z"/>
      <path class="cls-1" d="M419.45,55.9c0-.32.11-.59.32-.82s.51-.33.9-.33.67.11.89.33.33.49.33.82-.11.58-.33.8-.51.33-.89.33-.68-.11-.9-.33-.32-.49-.32-.8ZM421.76,44.06l-.21,9.06h-1.82l-.22-9.06h2.25Z"/>
    </g>
  </g>
</svg>