<?xml version="1.0" encoding="UTF-8"?>
<svg id="Layer_2" data-name="Layer 2" xmlns="http://www.w3.org/2000/svg" viewBox="0 0 279.42 37.72">
  <defs>
    <style>
      .cls-1 {
        fill: #fff;
        stroke-width: 0px;
      }
    </style>
  </defs>
  <g id="Layer_1-2" data-name="Layer 1">
    <g>
      <path class="cls-1" d="M17.07,20.24h5.75c-.12,1.88-.63,3.56-1.55,5.02-.92,1.46-2.19,2.6-3.83,3.42-1.63.82-3.6,1.23-5.89,1.23-1.79,0-3.4-.31-4.83-.93-1.42-.62-2.64-1.52-3.64-2.68-1.01-1.17-1.77-2.58-2.3-4.23-.53-1.65-.79-3.5-.79-5.56v-1.94c0-2.05.27-3.91.82-5.57.54-1.66,1.33-3.07,2.35-4.24,1.02-1.17,2.24-2.06,3.66-2.69,1.42-.63,3.01-.94,4.77-.94,2.33,0,4.3.42,5.91,1.27,1.61.85,2.86,2.01,3.75,3.5.89,1.49,1.43,3.18,1.6,5.08h-5.77c-.06-1.13-.29-2.09-.67-2.87s-.96-1.38-1.74-1.79c-.78-.4-1.8-.61-3.09-.61-.96,0-1.8.18-2.52.54-.72.36-1.32.9-1.81,1.63-.49.73-.85,1.65-1.09,2.76s-.36,2.41-.36,3.89v1.98c0,1.45.11,2.72.33,3.82s.55,2.02,1.01,2.77c.46.75,1.04,1.31,1.77,1.69.72.38,1.6.57,2.62.57,1.2,0,2.2-.19,2.98-.58.78-.38,1.38-.95,1.8-1.71.42-.76.66-1.7.74-2.83Z"/>
      <path class="cls-1" d="M25.38,19.34v-.4c0-1.52.22-2.93.65-4.22.44-1.29,1.07-2.41,1.9-3.35.83-.95,1.86-1.69,3.08-2.22,1.22-.53,2.61-.8,4.19-.8s2.98.27,4.21.8c1.23.53,2.27,1.27,3.1,2.22.84.95,1.48,2.07,1.91,3.35.44,1.29.65,2.69.65,4.22v.4c0,1.51-.22,2.91-.65,4.2s-1.07,2.41-1.91,3.36c-.84.96-1.87,1.69-3.09,2.22-1.22.53-2.61.79-4.19.79s-2.98-.26-4.2-.79c-1.22-.53-2.26-1.27-3.1-2.22-.84-.95-1.48-2.08-1.91-3.36-.44-1.29-.65-2.69-.65-4.2ZM30.91,18.94v.4c0,.87.08,1.69.23,2.44.15.76.4,1.42.74,1.99.34.57.79,1.02,1.34,1.34.55.32,1.22.48,2.02.48s1.43-.16,1.98-.48c.55-.32.99-.77,1.33-1.34.33-.57.58-1.23.74-1.99.16-.76.24-1.57.24-2.44v-.4c0-.85-.08-1.64-.24-2.39-.16-.75-.41-1.42-.75-2-.34-.58-.79-1.04-1.34-1.37-.55-.33-1.22-.5-2-.5s-1.45.17-1.99.5c-.54.33-.99.79-1.33,1.37-.34.58-.59,1.25-.74,2-.15.75-.23,1.55-.23,2.39Z"/>
      <path class="cls-1" d="M53.9,13.17v16.36h-5.54V8.73h5.19l.35,4.44ZM53.1,18.4h-1.5c0-1.54.2-2.93.6-4.16.4-1.24.95-2.29,1.67-3.17s1.57-1.55,2.57-2.02c.99-.47,2.1-.7,3.34-.7.97,0,1.86.14,2.67.42.81.28,1.5.73,2.09,1.35.58.62,1.03,1.43,1.35,2.44.31,1.01.47,2.25.47,3.71v13.26h-5.57v-13.28c0-.92-.13-1.64-.38-2.15-.26-.51-.63-.88-1.12-1.09-.49-.21-1.1-.32-1.82-.32s-1.39.15-1.93.44c-.54.29-.99.7-1.35,1.22s-.62,1.12-.8,1.82c-.18.69-.27,1.44-.27,2.23Z"/>
      <path class="cls-1" d="M69.72,19.38v-.4c0-1.59.19-3.03.59-4.33s.95-2.42,1.67-3.35c.72-.94,1.6-1.66,2.64-2.17s2.21-.77,3.52-.77c1.38,0,2.54.26,3.48.77.94.51,1.7,1.24,2.31,2.18.6.94,1.07,2.05,1.41,3.33.34,1.28.61,2.67.8,4.18v.88c-.19,1.45-.48,2.79-.87,4.04-.38,1.24-.89,2.33-1.52,3.26-.63.93-1.41,1.65-2.34,2.16-.93.51-2.03.77-3.32.77s-2.44-.26-3.47-.79c-1.03-.53-1.91-1.26-2.64-2.21s-1.29-2.06-1.68-3.35c-.39-1.28-.59-2.68-.59-4.19ZM83.72,8.73h5.02v20.11c0,1.9-.42,3.51-1.26,4.83-.84,1.33-2.01,2.33-3.51,3.02s-3.24,1.03-5.23,1.03c-.87,0-1.79-.12-2.76-.35-.97-.23-1.89-.59-2.77-1.08-.88-.49-1.61-1.1-2.2-1.85l2.44-3.27c.64.74,1.38,1.32,2.23,1.74.85.42,1.78.62,2.81.62s1.85-.18,2.54-.55c.69-.37,1.22-.9,1.6-1.6.37-.7.56-1.54.56-2.53v-15.34l.54-4.81ZM75.26,18.97v.4c0,.86.08,1.66.25,2.4s.43,1.4.78,1.97c.35.57.79,1.01,1.33,1.33s1.16.47,1.89.47c1.01,0,1.84-.21,2.48-.64.64-.43,1.12-1.02,1.44-1.78s.51-1.63.56-2.61v-2.52c-.03-.81-.13-1.53-.33-2.18-.19-.65-.46-1.2-.81-1.66-.35-.46-.79-.82-1.35-1.08-.55-.26-1.2-.38-1.96-.38s-1.36.16-1.89.49c-.53.33-.97.77-1.33,1.34s-.62,1.23-.8,1.99-.27,1.59-.27,2.47Z"/>
      <path class="cls-1" d="M98.58,13.26v16.26h-5.54V8.73h5.21l.33,4.54ZM104.85,8.59l-.1,5.13c-.27-.04-.59-.07-.97-.11-.38-.03-.72-.05-1.03-.05-.78,0-1.46.1-2.03.3-.57.2-1.04.49-1.42.87-.38.38-.66.85-.85,1.4-.19.55-.29,1.18-.32,1.88l-1.12-.35c0-1.35.13-2.59.4-3.72s.66-2.12,1.18-2.97,1.16-1.5,1.91-1.96c.76-.46,1.62-.69,2.6-.69.31,0,.62.02.94.07.32.04.58.11.79.18Z"/>
      <path class="cls-1" d="M118.78,16.86l.04,3.13h-3.09c-.73,0-1.36.08-1.9.25-.54.17-.98.4-1.33.7-.35.3-.6.65-.76,1.05-.16.4-.24.83-.24,1.31s.11.9.33,1.28c.22.38.53.67.94.88s.89.32,1.44.32c.83,0,1.56-.17,2.17-.5.62-.33,1.09-.74,1.43-1.23.34-.49.52-.95.53-1.38l1.46,2.35c-.21.53-.48,1.07-.84,1.63-.35.56-.8,1.09-1.34,1.59-.54.49-1.19.9-1.94,1.21-.76.31-1.65.47-2.69.47-1.32,0-2.52-.27-3.58-.8-1.07-.53-1.92-1.27-2.54-2.21s-.93-2.02-.93-3.22c0-1.09.21-2.06.62-2.9.41-.85,1.02-1.56,1.82-2.14.8-.58,1.8-1.03,3.01-1.33,1.2-.3,2.6-.45,4.19-.45h3.21ZM118.05,24.84v-9.27c0-.67-.11-1.24-.33-1.72-.22-.48-.55-.86-1.01-1.12-.46-.27-1.04-.4-1.76-.4-.62,0-1.15.11-1.6.32s-.79.51-1.04.9-.37.85-.37,1.37h-5.54c0-.88.2-1.72.62-2.52.41-.79,1.01-1.5,1.79-2.1.78-.61,1.71-1.09,2.8-1.43s2.3-.52,3.64-.52c1.61,0,3.05.27,4.31.81,1.26.54,2.25,1.35,2.97,2.42.72,1.08,1.09,2.42,1.09,4.04v8.9c0,1.14.07,2.07.21,2.8s.35,1.35.62,1.89v.33h-5.59c-.27-.56-.47-1.27-.61-2.12-.13-.85-.2-1.71-.2-2.57Z"/>
      <path class="cls-1" d="M138.08,8.73v3.92h-12.11v-3.92h12.11ZM128.97,3.6h5.54v19.67c0,.6.08,1.06.24,1.38.16.32.4.54.72.66.32.12.72.18,1.21.18.35,0,.66-.02.93-.05.28-.03.51-.07.7-.11l.02,4.08c-.47.15-.99.28-1.54.37-.55.09-1.16.13-1.83.13-1.22,0-2.28-.2-3.18-.61s-1.6-1.05-2.09-1.95c-.49-.9-.73-2.08-.73-3.54V3.6Z"/>
      <path class="cls-1" d="M154.14,20.28l1.63-.04c0,1.38-.16,2.67-.48,3.85-.32,1.19-.8,2.21-1.44,3.08-.64.87-1.45,1.54-2.42,2.02-.97.48-2.12.72-3.44.72-1.01,0-1.94-.14-2.8-.43-.85-.29-1.58-.74-2.19-1.37-.61-.62-1.08-1.42-1.42-2.4-.34-.98-.51-2.16-.51-3.55v-13.44h5.54v13.48c0,.62.07,1.13.22,1.56.15.42.36.77.62,1.04.27.27.59.46.95.58s.77.17,1.22.17c1.14,0,2.04-.23,2.7-.69.66-.46,1.13-1.09,1.4-1.89.28-.8.41-1.69.41-2.68ZM153.52,24.55v-15.82h5.54v20.8h-5.21l-.33-4.98Z"/>
      <path class="cls-1" d="M169.11,0v29.53h-5.56V0h5.56Z"/>
      <path class="cls-1" d="M185.64,16.86l.04,3.13h-3.09c-.73,0-1.37.08-1.9.25-.54.17-.98.4-1.33.7-.35.3-.6.65-.76,1.05-.16.4-.24.83-.24,1.31s.11.9.33,1.28c.22.38.53.67.94.88s.89.32,1.44.32c.83,0,1.56-.17,2.17-.5.62-.33,1.09-.74,1.43-1.23.34-.49.52-.95.53-1.38l1.46,2.35c-.21.53-.48,1.07-.84,1.63-.35.56-.8,1.09-1.34,1.59-.54.49-1.19.9-1.94,1.21-.76.31-1.65.47-2.69.47-1.32,0-2.52-.27-3.59-.8-1.07-.53-1.92-1.27-2.54-2.21-.62-.94-.93-2.02-.93-3.22,0-1.09.21-2.06.62-2.9.41-.85,1.02-1.56,1.82-2.14s1.8-1.03,3.01-1.33c1.2-.3,2.6-.45,4.19-.45h3.21ZM184.91,24.84v-9.27c0-.67-.11-1.24-.33-1.72-.22-.48-.55-.86-1.01-1.12-.46-.27-1.04-.4-1.76-.4-.62,0-1.15.11-1.6.32-.45.21-.79.51-1.04.9-.24.39-.37.85-.37,1.37h-5.54c0-.88.21-1.72.62-2.52.41-.79,1.01-1.5,1.79-2.1.78-.61,1.71-1.09,2.8-1.43s2.3-.52,3.64-.52c1.62,0,3.05.27,4.31.81,1.26.54,2.25,1.35,2.97,2.42.72,1.08,1.09,2.42,1.09,4.04v8.9c0,1.14.07,2.07.21,2.8.14.72.35,1.35.62,1.89v.33h-5.59c-.27-.56-.47-1.27-.61-2.12-.13-.85-.2-1.71-.2-2.57Z"/>
      <path class="cls-1" d="M204.94,8.73v3.92h-12.11v-3.92h12.11ZM195.83,3.6h5.54v19.67c0,.6.08,1.06.24,1.38s.4.54.72.66c.32.12.72.18,1.21.18.35,0,.66-.02.93-.05.28-.03.51-.07.7-.11l.02,4.08c-.47.15-.99.28-1.54.37-.55.09-1.16.13-1.83.13-1.22,0-2.28-.2-3.18-.61s-1.6-1.05-2.09-1.95c-.49-.9-.73-2.08-.73-3.54V3.6Z"/>
      <path class="cls-1" d="M208.02,3.31c0-.81.28-1.47.85-2,.56-.53,1.32-.79,2.27-.79s1.69.26,2.26.79c.57.53.86,1.19.86,2s-.29,1.47-.86,2c-.57.53-1.32.79-2.26.79s-1.71-.26-2.27-.79c-.56-.53-.85-1.19-.85-2ZM213.92,8.73v20.8h-5.56V8.73h5.56Z"/>
      <path class="cls-1" d="M217.61,19.34v-.4c0-1.52.22-2.93.65-4.22.43-1.29,1.07-2.41,1.9-3.35.83-.95,1.86-1.69,3.08-2.22s2.61-.8,4.19-.8,2.98.27,4.21.8,2.27,1.27,3.1,2.22c.84.95,1.48,2.07,1.91,3.35.44,1.29.65,2.69.65,4.22v.4c0,1.51-.22,2.91-.65,4.2s-1.07,2.41-1.91,3.36c-.84.96-1.87,1.69-3.08,2.22s-2.61.79-4.19.79-2.98-.26-4.2-.79c-1.22-.53-2.25-1.27-3.09-2.22-.84-.95-1.48-2.08-1.91-3.36-.44-1.29-.65-2.69-.65-4.2ZM223.15,18.94v.4c0,.87.08,1.69.23,2.44.15.76.4,1.42.74,1.99.34.57.78,1.02,1.34,1.34.55.32,1.22.48,2.02.48s1.43-.16,1.98-.48.99-.77,1.33-1.34c.33-.57.58-1.23.74-1.99s.24-1.57.24-2.44v-.4c0-.85-.08-1.64-.24-2.39-.16-.75-.41-1.42-.75-2-.34-.58-.79-1.04-1.34-1.37-.55-.33-1.22-.5-2-.5s-1.44.17-1.99.5c-.54.33-.99.79-1.33,1.37-.34.58-.59,1.25-.74,2-.15.75-.23,1.55-.23,2.39Z"/>
      <path class="cls-1" d="M246.14,13.17v16.36h-5.54V8.73h5.19l.35,4.44ZM245.33,18.4h-1.5c0-1.54.2-2.93.6-4.16s.95-2.29,1.67-3.17c.72-.88,1.57-1.55,2.57-2.02.99-.47,2.1-.7,3.33-.7.97,0,1.86.14,2.67.42.81.28,1.5.73,2.09,1.35s1.03,1.43,1.35,2.44c.31,1.01.47,2.25.47,3.71v13.26h-5.58v-13.28c0-.92-.13-1.64-.38-2.15-.26-.51-.63-.88-1.12-1.09s-1.1-.32-1.82-.32-1.39.15-1.93.44c-.54.29-.99.7-1.35,1.22-.35.52-.62,1.12-.8,1.82-.18.69-.27,1.44-.27,2.23Z"/>
      <path class="cls-1" d="M274.03,23.78c0-.4-.12-.76-.35-1.08s-.66-.62-1.28-.89c-.62-.28-1.52-.53-2.68-.76-1.05-.23-2.03-.52-2.93-.88-.9-.35-1.69-.78-2.35-1.28-.66-.5-1.18-1.09-1.55-1.78-.37-.69-.56-1.47-.56-2.35s.19-1.69.57-2.46c.38-.77.92-1.45,1.63-2.05.71-.6,1.58-1.06,2.61-1.4,1.03-.34,2.19-.51,3.49-.51,1.81,0,3.36.29,4.66.87,1.3.58,2.3,1.37,3,2.37.7,1.01,1.05,2.15,1.05,3.43h-5.54c0-.54-.11-1.02-.34-1.45-.22-.43-.57-.77-1.04-1.02-.47-.25-1.07-.37-1.82-.37-.62,0-1.15.11-1.6.32-.45.21-.79.49-1.03.85s-.36.74-.36,1.16c0,.32.07.61.2.86.13.25.36.48.66.68.31.21.71.39,1.2.57.49.17,1.11.33,1.84.47,1.5.31,2.84.71,4.02,1.2,1.18.49,2.12,1.16,2.81,2,.69.84,1.04,1.94,1.04,3.3,0,.92-.21,1.77-.62,2.54s-1,1.44-1.77,2.01c-.77.57-1.69,1.01-2.76,1.33-1.07.31-2.27.47-3.6.47-1.94,0-3.57-.35-4.91-1.04-1.34-.69-2.35-1.57-3.04-2.64-.69-1.07-1.03-2.17-1.03-3.3h5.25c.03.76.22,1.36.59,1.83s.83.79,1.4,1c.57.21,1.19.31,1.86.31.72,0,1.31-.1,1.79-.3.47-.2.84-.47,1.09-.81.25-.34.37-.73.37-1.18Z"/>
    </g>
  </g>
</svg>